<?xml version="1.0" encoding="UTF-8"?>
<svg width="24px" height="24px" viewBox="0 0 24 24" version="1.1" xmlns="http://www.w3.org/2000/svg" xmlns:xlink="http://www.w3.org/1999/xlink">
    <!-- Generator: Sketch 47.1 (45422) - http://www.bohemiancoding.com/sketch -->
    <title>admin_icon</title>
    <desc>Created with Sketch.</desc>
    <defs></defs>
    <g id="Design-System" stroke="none" stroke-width="1" fill="none" fill-rule="evenodd">
        <g id="Design_System_Export" transform="translate(-1914.000000, -172.000000)" fill="#FFFFFF">
            <g id="icons" transform="translate(1500.863281, 49.000000)">
                <g id="admin_icon'" transform="translate(413.816406, 123.097656)">
                    <path d="M8.23057906,11.2174676 C5.33014634,11.2174676 2.9791179,8.86548034 2.9791179,5.96504762 C2.9791179,3.06557372 5.33014634,0.713586462 8.23057906,0.713586462 C11.1310118,0.713586462 13.4820402,3.06557372 13.4820402,5.96504762 C13.4820402,6.74456888 13.3123289,7.48381966 13.007424,8.14924125 L12.9978357,8.15115889 L12.9767417,8.2163587 C12.1339383,9.99017706 10.3256024,11.2174676 8.23057906,11.2174676 Z M6.57047684,16.7339468 L9.13915759,18.599812 C9.20339858,18.8423936 9.28010424,19.0801811 9.37023338,19.3141334 L8.94835226,20.6142943 C8.71056472,20.6315531 8.47181836,20.6411413 8.23019553,20.6411413 C4.8992523,20.6411413 1.94991972,19.0053931 0.140625,16.4932828 C1.87417289,14.0866428 4.65379419,12.4854121 7.81406733,12.3559713 L7.78146743,12.4144594 C7.18603975,13.470121 6.81305849,14.6168706 6.6749883,15.8230671 L6.57047684,16.7339468 Z M20.8260317,17.6838505 C20.7406967,18.2313372 20.568109,18.7500592 20.3245685,19.2265931 L21.2086012,21.9458087 C20.5383855,22.6745124 19.7253055,23.2699401 18.8144258,23.6879859 L16.4988738,22.0062144 C16.2342393,22.0474437 15.9638518,22.0694965 15.6877114,22.0694965 C15.4115711,22.0694965 15.1411836,22.0474437 14.8765491,22.0062144 L12.560997,23.6879859 C11.6501173,23.2699401 10.8370373,22.6745124 10.1668216,21.9458087 L11.0508544,19.2265931 C10.8073139,18.7500592 10.635685,18.2313372 10.5493911,17.6838505 L8.23575669,16.0020789 C8.351774,14.9886054 8.67010248,14.0355376 9.14951285,13.1860225 L12.0115927,13.1860225 C12.3941622,12.803453 12.8361786,12.4803304 13.3232595,12.2319958 L14.2072922,9.51086258 C14.6857438,9.4149805 15.1814541,9.36416301 15.6877114,9.36416301 C16.1949276,9.36416301 16.6896791,9.4149805 17.1681306,9.51086258 L18.0521634,12.2319958 C18.5392443,12.4803304 18.9812607,12.803453 19.3638301,13.1860225 L22.22591,13.1860225 C22.7053204,14.0355376 23.0236489,14.9886054 23.140625,16.0020789 L20.8260317,17.6838505 Z M15.6877114,20.0444672 C17.4433122,20.0444672 18.8652433,18.6215772 18.8652433,16.8669352 C18.8652433,15.1113345 17.4433122,13.6894033 15.6877114,13.6894033 C13.9330695,13.6894033 12.5101795,15.1113345 12.5101795,16.8669352 C12.5101795,18.6215772 13.9330695,20.0444672 15.6877114,20.0444672 Z" id="Combined-Shape"></path>
                </g>
            </g>
        </g>
    </g>
</svg>