<?xml version="1.0" encoding="UTF-8"?>
<svg width="25px" height="17px" viewBox="0 0 25 17" version="1.1" xmlns="http://www.w3.org/2000/svg" xmlns:xlink="http://www.w3.org/1999/xlink">
    <!-- Generator: Sketch 47.1 (45422) - http://www.bohemiancoding.com/sketch -->
    <title>approval_icon</title>
    <desc>Created with Sketch.</desc>
    <defs></defs>
    <g id="Design-System" stroke="none" stroke-width="1" fill="none" fill-rule="evenodd">
        <g id="Design_System_Export" transform="translate(-1776.000000, -176.000000)" fill="#FFFFFF">
            <g id="icons" transform="translate(1500.863281, 49.000000)">
                <g id="approval_icon" transform="translate(274.839844, 126.097656)">
                    <g id="Page-1" transform="translate(0.140625, 0.632812)">
                        <path d="M24.1308625,1.4012625 C23.3918625,0.7832625 22.2938625,0.8812625 21.6758625,1.6192625 L13.3598625,11.5582625 L9.3618625,7.6302625 C8.6748625,6.9562625 7.5718625,6.9652625 6.8978625,7.6522625 C6.2228625,8.3392625 6.2328625,9.4432625 6.9198625,10.1172625 L12.2638625,15.3672625 C12.5898625,15.6882625 13.0288625,15.8672625 13.4848625,15.8672625 C13.5128625,15.8672625 13.5418625,15.8662625 13.5698625,15.8642625 C14.0558625,15.8412625 14.5098625,15.6152625 14.8218625,15.2422625 L24.3488625,3.8562625 C24.9658625,3.1182625 24.8688625,2.0192625 24.1308625,1.4012625 M4.6178625,12.9622625 L2.1358625,12.9622625 C1.1888625,12.9622625 0.4138625,13.7372625 0.4138625,14.6842625 C0.4138625,15.6312625 1.1888625,16.4052625 2.1358625,16.4052625 L4.6178625,16.4052625 C5.5648625,16.4052625 6.3398625,15.6312625 6.3398625,14.6842625 C6.3398625,13.7372625 5.5648625,12.9622625 4.6178625,12.9622625 M2.1358625,10.1312625 L3.2238625,10.1312625 C4.1708625,10.1312625 4.9448625,9.3572625 4.9448625,8.4102625 C4.9448625,7.4632625 4.1708625,6.6882625 3.2238625,6.6882625 L2.1358625,6.6882625 C1.1888625,6.6882625 0.4138625,7.4632625 0.4138625,8.4102625 C0.4138625,9.3572625 1.1888625,10.1312625 2.1358625,10.1312625 M0.4138625,2.1362625 C0.4138625,1.1892625 1.1888625,0.4142625 2.1358625,0.4142625 L13.6798625,0.4142625 C14.6278625,0.4142625 15.4018625,1.1892625 15.4018625,2.1362625 C15.4018625,3.0832625 14.6278625,3.8582625 13.6798625,3.8582625 L2.1358625,3.8582625 C1.1888625,3.8582625 0.4138625,3.0832625 0.4138625,2.1362625" id="Fill-1"></path>
                    </g>
                </g>
            </g>
        </g>
    </g>
</svg>