<?xml version="1.0" encoding="UTF-8"?>
<svg width="8px" height="9px" viewBox="0 0 8 9" version="1.1" xmlns="http://www.w3.org/2000/svg" xmlns:xlink="http://www.w3.org/1999/xlink">
    <!-- Generator: Sketch 47.1 (45422) - http://www.bohemiancoding.com/sketch -->
    <title>close-sm</title>
    <desc>Created with Sketch.</desc>
    <defs></defs>
    <g id="Design-System" stroke="none" stroke-width="1" fill="none" fill-rule="evenodd">
        <g id="Design_System_Export" transform="translate(-1576.000000, -235.000000)" fill="#999999">
            <g id="icons" transform="translate(1500.863281, 49.000000)">
                <g id="close-sm" transform="translate(74.386719, 186.597656)">
                    <path d="M4.83835321,3.38844819 L1.57656155,0.126656527 C1.40768618,-0.0422188424 1.1338851,-0.0422188424 0.965009734,0.126656527 C0.796134365,0.295531896 0.796134365,0.569332968 0.965009734,0.738208338 L4.2268014,4 L0.965009734,7.26179166 C0.796134365,7.43066703 0.796134365,7.7044681 0.965009734,7.87334347 C1.1338851,8.04221884 1.40768618,8.04221884 1.57656155,7.87334347 L4.83835321,4.61155181 L8.10014487,7.87334347 C8.26902024,8.04221884 8.54282131,8.04221884 8.71169668,7.87334347 C8.88057205,7.7044681 8.88057205,7.43066703 8.71169668,7.26179166 L5.44990502,4 L8.71169668,0.738208338 C8.88057205,0.569332968 8.88057205,0.295531896 8.71169668,0.126656527 C8.54282131,-0.0422188424 8.26902024,-0.0422188424 8.10014487,0.126656527 L4.83835321,3.38844819 Z" id="Combined-Shape"></path>
                </g>
            </g>
        </g>
    </g>
</svg>