<?xml version="1.0" encoding="UTF-8"?>
<svg width="13px" height="13px" viewBox="0 0 13 13" version="1.1" xmlns="http://www.w3.org/2000/svg" xmlns:xlink="http://www.w3.org/1999/xlink">
    <!-- Generator: Sketch 47.1 (45422) - http://www.bohemiancoding.com/sketch -->
    <title>close</title>
    <desc>Created with Sketch.</desc>
    <defs></defs>
    <g id="Design-System" stroke="none" stroke-width="1" fill="none" fill-rule="evenodd">
        <g id="Design_System_Export" transform="translate(-1508.000000, -234.000000)" fill="#FFFFFF">
            <g id="icons" transform="translate(1500.863281, 49.000000)">
                <g id="close" transform="translate(6.386719, 184.597656)">
                    <path d="M6.99290707,6.00799554 L2.03911128,1.05419975 C1.78263442,0.797722889 1.36680326,0.797722889 1.1103264,1.05419975 C0.853849534,1.31067662 0.853849534,1.72650777 1.1103264,1.98298464 L6.06412219,6.93678043 L1.1103264,11.8905762 C0.853849534,12.1470531 0.853849534,12.5628842 1.1103264,12.8193611 C1.36680326,13.075838 1.78263442,13.075838 2.03911128,12.8193611 L6.99290707,7.86556531 L11.9467029,12.8193611 C12.2031797,13.075838 12.6190109,13.075838 12.8754877,12.8193611 C13.1319646,12.5628842 13.1319646,12.1470531 12.8754877,11.8905762 L7.92169196,6.93678043 L12.8754877,1.98298464 C13.1319646,1.72650777 13.1319646,1.31067662 12.8754877,1.05419975 C12.6190109,0.797722889 12.2031797,0.797722889 11.9467029,1.05419975 L6.99290707,6.00799554 Z" id="Combined-Shape"></path>
                </g>
            </g>
        </g>
    </g>
</svg>