<?xml version="1.0" encoding="UTF-8"?>
<svg width="21px" height="21px" viewBox="0 0 21 21" version="1.1" xmlns="http://www.w3.org/2000/svg" xmlns:xlink="http://www.w3.org/1999/xlink">
    <!-- Generator: Sketch 47.1 (45422) - http://www.bohemiancoding.com/sketch -->
    <title>dashboard_icon</title>
    <desc>Created with Sketch.</desc>
    <defs></defs>
    <g id="Design-System" stroke="none" stroke-width="1" fill="none" fill-rule="evenodd">
        <g id="Design_System_Export" transform="translate(-1503.000000, -174.000000)" fill="#FFFFFF">
            <g id="icons" transform="translate(1500.863281, 49.000000)">
                <g id="dashboard_icon" transform="translate(1.886719, 124.597656)">
                    <path d="M18.7043921,9.56347037 L12.9111856,9.56347037 C12.0423913,9.56347037 11.3322383,10.2736234 11.3322383,11.1414845 L11.3322383,19.0567514 C11.3322383,19.9246126 12.0423913,20.6347656 12.9111856,20.6347656 L18.7043921,20.6347656 C19.5722532,20.6347656 20.2824063,19.9246126 20.2824063,19.0567514 L20.2824063,11.1414845 C20.2824063,10.2736234 19.5722532,9.56347037 18.7043921,9.56347037 M18.7043921,0.634765625 L12.9111856,0.634765625 C12.0423913,0.634765625 11.3322383,1.34491867 11.3322383,2.21371299 L11.3322383,5.88579213 C11.3322383,6.75365327 12.0423913,7.46380631 12.9111856,7.46380631 L18.7043921,7.46380631 C19.5722532,7.46380631 20.2824063,6.75365327 20.2824063,5.88579213 L20.2824063,2.21371299 C20.2824063,1.34491867 19.5722532,0.634765625 18.7043921,0.634765625 M7.65456004,0.634765625 L1.86135362,0.634765625 C0.992559292,0.634765625 0.28240625,1.34491867 0.28240625,2.21371299 L0.28240625,10.1271135 C0.28240625,10.9959078 0.992559292,11.7060609 1.86135362,11.7060609 L7.65456004,11.7060609 C8.52242118,11.7060609 9.23257422,10.9959078 9.23257422,10.1271135 L9.23257422,2.21371299 C9.23257422,1.34491867 8.52242118,0.634765625 7.65456004,0.634765625 M9.23257422,15.3846723 L9.23257422,19.0567514 C9.23257422,19.9246126 8.52242118,20.6347656 7.65456004,20.6347656 L1.86135362,20.6347656 C0.992559292,20.6347656 0.28240625,19.9246126 0.28240625,19.0567514 L0.28240625,15.3846723 C0.28240625,14.515878 0.992559292,13.8057249 1.86135362,13.8057249 L7.65456004,13.8057249 C8.52242118,13.8057249 9.23257422,14.515878 9.23257422,15.3846723" id="Fill-1"></path>
                </g>
            </g>
        </g>
    </g>
</svg>