<?xml version="1.0" encoding="UTF-8"?>
<svg width="25px" height="25px" viewBox="0 0 25 25" version="1.1" xmlns="http://www.w3.org/2000/svg" xmlns:xlink="http://www.w3.org/1999/xlink">
    <!-- Generator: Sketch 47.1 (45422) - http://www.bohemiancoding.com/sketch -->
    <title>edit_fill</title>
    <desc>Created with Sketch.</desc>
    <defs></defs>
    <g id="Design-System" stroke="none" stroke-width="1" fill="none" fill-rule="evenodd">
        <g id="Design_System_Export" transform="translate(-1760.000000, -255.000000)">
            <g id="icons" transform="translate(1500.863281, 49.000000)">
                <g id="edit_fill" transform="translate(259.386719, 205.597656)">
                    <path d="M20.5716286,24.768743 L3.42877143,24.768743 C1.54305714,24.768743 0.0002,23.2258858 0.0002,21.3401715 L0.0002,4.1973144 C0.0002,2.31245725 1.54305714,0.768742969 3.42877143,0.768742969 L20.5716286,0.768742969 C22.4573429,0.768742969 24.0002,2.31245725 24.0002,4.1973144 L24.0002,21.3401715 C24.0002,23.2258858 22.4573429,24.768743 20.5716286,24.768743" id="Fill-1" fill="#1162BA"></path>
                    <path d="M9.889,17.438143 C9.824,16.875143 9.588,16.329143 9.158,15.899143 C8.729,15.469143 8.182,15.233143 7.619,15.167143 L7,18.057143 L9.889,17.438143 Z" id="Fill-1" fill="#FFFFFF"></path>
                    <path d="M9.9022,15.154943 C10.3772,15.629943 10.6792,16.205943 10.8382,16.811943 L17.2532,10.395943 C17.9662,9.68294297 17.9662,8.51694297 17.2532,7.80294297 C16.5402,7.09094297 15.3732,7.09094297 14.6602,7.80294297 L8.2452,14.218943 C8.8512,14.378943 9.4272,14.679943 9.9022,15.154943" id="Fill-4" fill="#FFFFFF"></path>
                </g>
            </g>
        </g>
    </g>
</svg>