<?xml version="1.0" encoding="UTF-8"?>
<svg width="23px" height="24px" viewBox="0 0 23 24" version="1.1" xmlns="http://www.w3.org/2000/svg" xmlns:xlink="http://www.w3.org/1999/xlink">
    <!-- Generator: Sketch 47.1 (45422) - http://www.bohemiancoding.com/sketch -->
    <title>error_icon</title>
    <desc>Created with Sketch.</desc>
    <defs></defs>
    <g id="Design-System" stroke="none" stroke-width="1" fill="none" fill-rule="evenodd">
        <g id="Design_System_Export" transform="translate(-1670.000000, -225.000000)" fill="#FFFFFF">
            <g id="icons" transform="translate(1500.863281, 49.000000)">
                <g id="error_icon" transform="translate(169.125000, 175.597656)">
                    <g id="Group-3" stroke-width="1" transform="translate(0.000000, 0.500000)">
                        <path d="M11.2498,20.9999 C6.1498,20.9999 1.9998,16.8509 1.9998,11.7499 C1.9998,6.6489 6.1498,2.4999 11.2498,2.4999 C16.3508,2.4999 20.4998,6.6489 20.4998,11.7499 C20.4998,16.8509 16.3508,20.9999 11.2498,20.9999 M11.2498,0.4999 C5.0368,0.4999 -0.0002,5.5369 -0.0002,11.7499 C-0.0002,17.9629 5.0368,22.9999 11.2498,22.9999 C17.4628,22.9999 22.4998,17.9629 22.4998,11.7499 C22.4998,5.5369 17.4628,0.4999 11.2498,0.4999" id="Fill-1"></path>
                    </g>
                    <path d="M15.5784,7.9213 C15.1874,7.5303 14.5554,7.5303 14.1644,7.9213 L11.2494,10.8363 L8.3354,7.9213 C7.9454,7.5303 7.3124,7.5303 6.9214,7.9213 C6.5314,8.3123 6.5314,8.9443 6.9214,9.3353 L9.8364,12.2503 L6.9214,15.1643 C6.5314,15.5553 6.5314,16.1883 6.9214,16.5783 C7.1174,16.7743 7.3724,16.8713 7.6284,16.8713 C7.8844,16.8713 8.1404,16.7743 8.3354,16.5783 L11.2494,13.6643 L14.1644,16.5783 C14.3594,16.7743 14.6154,16.8713 14.8714,16.8713 C15.1274,16.8713 15.3834,16.7743 15.5784,16.5783 C15.9694,16.1883 15.9694,15.5553 15.5784,15.1643 L12.6634,12.2503 L15.5784,9.3353 C15.9694,8.9443 15.9694,8.3123 15.5784,7.9213" id="Fill-4"></path>
                </g>
            </g>
        </g>
    </g>
</svg>