<?xml version="1.0" encoding="UTF-8"?>
<svg width="19px" height="14px" viewBox="0 0 19 14" version="1.1" xmlns="http://www.w3.org/2000/svg" xmlns:xlink="http://www.w3.org/1999/xlink">
    <!-- Generator: Sketch 47.1 (45422) - http://www.bohemiancoding.com/sketch -->
    <title>Group 4</title>
    <desc>Created with Sketch.</desc>
    <defs>
        <polygon id="path-1" points="10.2111102 13.6731 6.53888981 13.6731 6.53888981 10.0000087 10.2111102 10.0000087"></polygon>
    </defs>
    <g id="Usage" stroke="none" stroke-width="1" fill="none" fill-rule="evenodd">
        <g id="Usage1" transform="translate(-120.000000, -143.000000)">
            <g id="Group-2" transform="translate(96.000000, 64.000000)">
                <g id="Group-9" transform="translate(24.000000, 69.000000)">
                    <g id="Group-5">
                        <g id="Group-4" transform="translate(0.857422, 10.208984)">
                            <path d="M8.2114,1.8366 C8.2114,0.8226 7.3894,0.0006 6.3754,0.0006 C5.3604,0.0006 4.5384,0.8226 4.5384,1.8366 C4.5384,2.8506 5.3604,3.6726 6.3754,3.6726 C7.3894,3.6726 8.2114,2.8506 8.2114,1.8366" id="Fill-1" fill="#F78100"></path>
                            <path d="M10.2114,11.8366 C10.2114,10.8226 9.3894,10.0006 8.3754,10.0006 C7.3604,10.0006 6.5384,10.8226 6.5384,11.8366 C6.5384,12.8506 7.3604,13.6726 8.3754,13.6726 C9.3894,13.6726 10.2114,12.8506 10.2114,11.8366" id="Fill-1" fill="#F78100"></path>
                            <path d="M12.375,5.0001 C11.361,5.0001 10.539,5.8221 10.539,6.8361 C10.539,7.8511 11.361,8.6731 12.375,8.6731 C13.389,8.6731 14.211,7.8511 14.211,6.8361 C14.211,5.8221 13.389,5.0001 12.375,5.0001" id="Fill-3" fill="#F78100"></path>
                            <path d="M10.2114,1.8366 C10.2114,2.1846 10.1494,2.5156 10.0624,2.8366 L17.0004,2.8366 C17.5524,2.8366 18.0004,2.3886 18.0004,1.8366 C18.0004,1.2846 17.5524,0.8366 17.0004,0.8366 L10.0624,0.8366 C10.1494,1.1576 10.2114,1.4886 10.2114,1.8366" id="Fill-5" fill="#F78100"></path>
                            <path d="M1,7.8366 L8.697,7.8366 C8.605,7.5166 8.539,7.1866 8.539,6.8366 C8.539,6.4886 8.6,6.1576 8.687,5.8366 L1,5.8366 C0.448,5.8366 0,6.2846 0,6.8366 C0,7.3886 0.448,7.8366 1,7.8366" id="Fill-8" fill="#F78100"></path>
                            <path d="M1,2.8366 L2.687,2.8366 C2.6,2.5156 2.539,2.1846 2.539,1.8366 C2.539,1.4886 2.6,1.1576 2.687,0.8366 L1,0.8366 C0.448,0.8366 0,1.2846 0,1.8366 C0,2.3886 0.448,2.8366 1,2.8366" id="Fill-10" fill="#F78100"></path>
                            <path d="M17,5.8366 L16.063,5.8366 C16.15,6.1576 16.211,6.4886 16.211,6.8366 C16.211,7.1846 16.15,7.5156 16.063,7.8366 L17,7.8366 C17.552,7.8366 18,7.3886 18,6.8366 C18,6.2846 17.552,5.8366 17,5.8366" id="Fill-12" fill="#F78100"></path>
                            <path d="M17,10.8366 L12.053,10.8366 C12.148,11.1696 12.215,11.5126 12.211,11.8756 C12.208,12.2096 12.147,12.5276 12.063,12.8366 L17,12.8366 C17.552,12.8366 18,12.3886 18,11.8366 C18,11.2846 17.552,10.8366 17,10.8366" id="Fill-14" fill="#F78100"></path>
                            <path d="M4.5386,11.7975 C4.5416,11.4635 4.6026,11.1455 4.6866,10.8365 L0.9996,10.8365 C0.4476,10.8365 -0.0004,11.2845 -0.0004,11.8365 C-0.0004,12.3885 0.4476,12.8365 0.9996,12.8365 L4.6886,12.8365 C4.5986,12.5035 4.5356,12.1595 4.5386,11.7975" id="Fill-16" fill="#F78100"></path>
                            <mask id="mask-2" fill="white">
                                <use xlink:href="#path-1"></use>
                            </mask>
                            <g id="Clip-20"></g>
                        </g>
                    </g>
                </g>
            </g>
        </g>
    </g>
</svg>