<?xml version="1.0" encoding="UTF-8"?>
<svg width="28px" height="21px" viewBox="0 0 28 21" version="1.1" xmlns="http://www.w3.org/2000/svg" xmlns:xlink="http://www.w3.org/1999/xlink">
    <!-- Generator: Sketch 47.1 (45422) - http://www.bohemiancoding.com/sketch -->
    <title>finance_icon</title>
    <desc>Created with Sketch.</desc>
    <defs></defs>
    <g id="Design-System" stroke="none" stroke-width="1" fill="none" fill-rule="evenodd">
        <g id="Design_System_Export" transform="translate(-1844.000000, -174.000000)" fill="#000000">
            <g id="icons" transform="translate(1500.863281, 49.000000)">
                <g id="finance_icon" transform="translate(343.328125, 124.597656)">
                    <path d="M15.8532475,16.6246017 L6.13813971,16.6246017 C4.97707699,16.6246017 4.02703353,15.6745582 4.02703353,14.5134955 L4.02703353,4.60655195 C4.02703353,4.34894401 4.23622579,4.13975175 4.49474723,4.13975175 L19.3145116,4.13975175 C16.3712039,5.43144545 14.3149079,8.37109914 14.3149079,11.7921691 C14.3149079,13.5926841 14.884934,15.2607412 15.8532475,16.6246017 Z M26.9319418,13.4509998 C27.0771888,13.8209686 27.1466151,14.2503152 27.1402205,14.7381259 C27.1137289,16.7706708 25.9672823,17.9171175 23.7027075,18.1774659 L23.681697,19.702103 L21.4417868,19.6719574 L21.4618839,18.1783794 C19.9281118,18.0130353 18.6894013,17.5973913 17.7439254,16.9314474 L18.7935407,15.2487743 C19.8632531,15.9265938 21.077299,16.275552 22.4365919,16.2929086 C23.3281712,16.3056976 23.9466129,16.1969907 24.2919172,15.9677014 C24.6372214,15.7393256 24.8135276,15.3812323 24.8199221,14.8934215 C24.8263166,14.3955622 24.6573185,14.0511714 24.3120142,13.8593357 C23.96671,13.6684136 23.3135551,13.4994154 22.3507226,13.3514279 C21.9268571,13.2829151 21.5925149,13.2244509 21.349523,13.1742083 C21.1065311,13.1248791 20.8041615,13.0454043 20.4424142,12.9366974 C20.0806669,12.8279905 19.7947403,12.6973595 19.5846346,12.543891 C19.3736153,12.3913359 19.1635095,12.2040677 18.9534038,11.9839134 C18.7442115,11.7628456 18.5916564,11.4860541 18.4984791,11.1526254 C18.4034748,10.8191967 18.3596266,10.4400928 18.3651076,10.0153138 C18.3788102,8.98853603 18.6537747,8.2084042 19.1900011,7.67674526 C19.7262276,7.14417283 20.5337645,6.82810068 21.6144389,6.72852882 L21.6299685,5.57751463 L23.8698786,5.60674674 L23.8543491,6.74223137 C24.921321,6.8609868 25.8722779,7.1642699 26.7053929,7.65208067 L25.6393346,9.44254718 C25.3104734,9.23061441 24.8692513,9.05613528 24.3156683,8.92002328 C23.7629987,8.78299779 23.2267723,8.71083102 22.7079024,8.703523 C21.9515217,8.69347446 21.4317383,8.7875653 21.1485522,8.98579552 C20.8662797,9.18493925 20.7219462,9.49187636 20.7164652,9.90660687 C20.7137247,10.1139721 20.7520918,10.2930188 20.8333936,10.4446603 C20.9146954,10.5963019 21.0060457,10.7168843 21.1083581,10.8054941 C21.211584,10.895931 21.3942846,10.9808868 21.6582871,11.0621886 C21.9213761,11.1434904 22.1515789,11.2037816 22.3479821,11.2430622 C22.5443853,11.2814294 22.865025,11.3408071 23.3099011,11.4193684 C23.7967984,11.4979297 24.1896048,11.5737504 24.4901474,11.6450037 C24.7897765,11.716257 25.1305132,11.8350124 25.5123576,12.00127 C25.8932885,12.1666141 26.1892636,12.3575363 26.3993693,12.5731231 C26.6085616,12.7877963 26.7866947,13.0810309 26.9319418,13.4509998 Z M17.9726666,19.721926 C17.9854556,19.7630337 17.9991582,19.8041413 18.0128607,19.845249 C18.0448334,19.9402533 18.0457469,20.0425657 18.0146877,20.1384835 C17.9525695,20.3303192 17.7726094,20.4609502 17.5707251,20.4609502 L2.25218793,20.4609502 C1.09112521,20.4609502 0.141081752,19.5109067 0.141081752,18.349844 L0.141081752,8.4429005 C0.141081752,8.18529256 0.350274012,7.9761003 0.607881949,7.9761003 L2.25127442,7.9761003 L2.25127442,15.3745637 C2.25127442,16.8928062 3.49363894,18.1360842 5.01188146,18.1360842 L16.9175703,18.1360842 C16.9449754,18.1717109 16.976948,18.204597 17.0144016,18.2320021 L17.8018415,19.4835016 C17.8831433,19.5428794 17.942521,19.6260082 17.9726666,19.721926 Z M26.0051013,2.27620498 L26.0051013,2.64343331 L4.02712488,2.64343331 L4.02712488,2.27620498 C4.02712488,1.37183669 4.76706257,0.6328125 5.67143086,0.6328125 L24.3617088,0.6328125 C25.2651636,0.6328125 26.0051013,1.37183669 26.0051013,2.27620498 Z M2.25081767,4.4685216 L2.25081767,6.47914241 L0.140625,6.47914241 L0.140625,6.11191407 C0.140625,5.20845929 0.880562691,4.4685216 1.78493098,4.4685216 L2.25081767,4.4685216 Z" id="Combined-Shape"></path>
                </g>
            </g>
        </g>
    </g>
</svg>