<?xml version="1.0" encoding="UTF-8"?>
<svg width="23px" height="23px" viewBox="0 0 23 23" version="1.1" xmlns="http://www.w3.org/2000/svg" xmlns:xlink="http://www.w3.org/1999/xlink">
    <!-- Generator: Sketch 47.1 (45422) - http://www.bohemiancoding.com/sketch -->
    <title>info_icon</title>
    <desc>Created with Sketch.</desc>
    <defs></defs>
    <g id="Design-System" stroke="none" stroke-width="1" fill="none" fill-rule="evenodd">
        <g id="Design_System_Export" transform="translate(-1708.000000, -225.000000)" fill="#FFFFFF">
            <g id="icons" transform="translate(1500.863281, 49.000000)">
                <g id="info_icon" transform="translate(207.386719, 175.597656)">
                    <path d="M11.2498,20.9999 C6.1498,20.9999 1.9998,16.8509 1.9998,11.7499 C1.9998,6.6489 6.1498,2.4999 11.2498,2.4999 C16.3508,2.4999 20.4998,6.6489 20.4998,11.7499 C20.4998,16.8509 16.3508,20.9999 11.2498,20.9999 M11.2498,0.4999 C5.0368,0.4999 -0.0002,5.5369 -0.0002,11.7499 C-0.0002,17.9629 5.0368,22.9999 11.2498,22.9999 C17.4628,22.9999 22.4998,17.9629 22.4998,11.7499 C22.4998,5.5369 17.4628,0.4999 11.2498,0.4999" id="Fill-1"></path>
                    <path d="M11.2503,8.6284 C10.6983,8.6284 10.2503,9.0764 10.2503,9.6284 L10.2503,15.8714 C10.2503,16.1474 10.3613,16.3974 10.5423,16.5784 C10.7233,16.7594 10.9733,16.8714 11.2503,16.8714 C11.8023,16.8714 12.2503,16.4234 12.2503,15.8714 L12.2503,9.6284 C12.2503,9.0764 11.8023,8.6284 11.2503,8.6284" id="Fill-4"></path>
                    <path d="M11.2498,7.871 C11.8028,7.871 12.2498,7.424 12.2498,6.871 L12.2498,6.75 C12.2498,6.197 11.8028,5.75 11.2498,5.75 C10.6978,5.75 10.2498,6.197 10.2498,6.75 L10.2498,6.871 C10.2498,7.147 10.3618,7.397 10.5428,7.579 C10.7238,7.76 10.9738,7.871 11.2498,7.871" id="Fill-6"></path>
                </g>
            </g>
        </g>
    </g>
</svg>