<?xml version="1.0" encoding="UTF-8"?>
<svg id="mc_logo" width="138px" height="30px" viewBox="0 0 138 30" version="1.1" xmlns="http://www.w3.org/2000/svg" xmlns:xlink="http://www.w3.org/1999/xlink">
    <!-- Generator: Sketch 45.2 (43514) - http://www.bohemiancoding.com/sketch -->
    <title>MC Health System-long-03</title>
    <desc>Created with Sketch.</desc>
    <defs></defs>
    <g id="Navigation" stroke="none" stroke-width="1" fill="none" fill-rule="evenodd">
        <g id="Level-1-Long" transform="translate(-148.000000, -14.000000)">
            <g id="MC-Health-System-long-03" transform="translate(148.000000, 14.000000)">
                <path d="M35.074098,0.0157894737 C35.2305882,0.0390225564 35.3918137,0.0561654135 35.5582255,0.0676691729 C35.7239608,0.0791729323 35.8964608,0.0845864662 36.0755,0.0845864662 C36.2189118,0.0845864662 36.3787843,0.0791729323 36.5544412,0.0676691729 C36.730098,0.0561654135 36.9391275,0.037443609 37.1819804,0.0110526316 L38.8686471,4.48781955 L40.411451,0.0157894737 C40.6155196,0.0390225564 40.8013235,0.0561654135 40.9686373,0.0676691729 C41.1361765,0.0791729323 41.2965,0.0845864662 41.4493824,0.0845864662 C41.5639314,0.0845864662 41.7059902,0.0782706767 41.8751078,0.0651879699 C42.044,0.0521052632 42.2259706,0.0356390977 42.4203431,0.0157894737 L42.4203431,0.261203008 C42.2699412,0.280601504 42.1619314,0.323007519 42.0965392,0.388421053 C42.0309216,0.45406015 41.998,0.551954887 41.998,0.683007519 C41.998,0.724736842 41.998902,0.768496241 42.0007059,0.814736842 C42.0022843,0.861203008 42.0047647,0.911729323 42.0076961,0.965639098 L42.3384902,5.59533835 C42.3581078,5.85383459 42.4027549,6.01984962 42.4733333,6.09360902 C42.5434608,6.16691729 42.676049,6.21496241 42.8713235,6.23729323 L42.8713235,6.49218045 C42.6480882,6.45992481 42.4395098,6.43533835 42.2467157,6.41887218 C42.0536961,6.40285714 41.8694706,6.39451128 41.6938137,6.39451128 C41.435402,6.39451128 41.2022451,6.40285714 40.9952451,6.41887218 C40.7875686,6.43533835 40.5898137,6.45992481 40.4017549,6.49218045 L40.4017549,6.23729323 C40.6346863,6.2018797 40.7875686,6.14210526 40.8613039,6.0575188 C40.9348137,5.97293233 40.9711176,5.81413534 40.9711176,5.58045113 C40.9711176,5.52315789 40.9695392,5.47443609 40.9666078,5.43451128 C40.9632255,5.39458647 40.9602941,5.35736842 40.9566863,5.32195489 L40.7131569,1.54578947 L39.0170196,6.49218045 L38.2214902,6.49218045 L36.3575882,1.47879699 L36.1519412,5.46112782 C36.1519412,5.46428571 36.1519412,5.47398496 36.1519412,5.49 C36.1458529,5.55969925 36.1426961,5.62849624 36.1426961,5.69571429 C36.1426961,5.88135338 36.178549,6.00992481 36.2504804,6.08165414 C36.3224118,6.15315789 36.4698824,6.20548872 36.6933431,6.23729323 L36.6883824,6.49218045 C36.4906275,6.46285714 36.3091078,6.44097744 36.1445,6.42586466 C35.9798922,6.41165414 35.8389608,6.40398496 35.7203529,6.40398496 C35.5480784,6.40398496 35.3762549,6.41165414 35.2048824,6.42586466 C35.0344118,6.44097744 34.8628137,6.46285714 34.6900882,6.49218045 L34.6900882,6.23729323 C35.0486176,6.22466165 35.2452451,5.95759398 35.2804216,5.43699248 L35.2804216,5.42255639 L35.5828039,0.936992481 L35.5828039,0.788345865 C35.5828039,0.600225564 35.5476275,0.468947368 35.4772745,0.395413534 C35.4069216,0.322330827 35.2725294,0.275864662 35.074098,0.256466165 L35.074098,0.0157894737" id="Fill-1" fill="#FFFFFE"></path>
                <path d="M43.2370686,0.0157894737 C43.4445196,0.0455639098 43.6476863,0.0676691729 43.8458922,0.0823308271 C44.0443235,0.0969924812 44.240951,0.10443609 44.436,0.10443609 C44.6281176,0.10443609 44.8247451,0.0969924812 45.0261078,0.0823308271 C45.2276961,0.0676691729 45.4322157,0.0455639098 45.6401176,0.0157894737 L45.6401176,0.261203008 C45.4572451,0.277218045 45.3282647,0.328421053 45.252951,0.415037594 C45.1776373,0.50075188 45.1397549,0.638345865 45.1397549,0.826917293 L45.1397549,5.66729323 C45.1397549,5.85879699 45.1783137,5.99774436 45.2552059,6.08413534 C45.3323235,6.17007519 45.4606275,6.22150376 45.6401176,6.23729323 L45.6401176,6.49218045 C45.3938824,6.45992481 45.1731275,6.43511278 44.9778529,6.41864662 C44.7830294,6.40263158 44.6024118,6.39428571 44.436,6.39428571 C44.2666569,6.39428571 44.0844608,6.40263158 43.8894118,6.41864662 C43.6941373,6.43511278 43.4767647,6.45992481 43.2370686,6.49218045 L43.2370686,6.23729323 C43.4197157,6.22150376 43.5484706,6.17007519 43.6240098,6.08413534 C43.699098,5.99774436 43.7372059,5.85879699 43.7372059,5.66729323 L43.7372059,0.826917293 C43.7372059,0.638345865 43.699098,0.50075188 43.6240098,0.415037594 C43.5484706,0.328421053 43.4197157,0.277218045 43.2370686,0.261203008 L43.2370686,0.0157894737" id="Fill-2" fill="#FFFFFE"></path>
                <path d="M47.9922059,0.0157894737 C48.1423824,0.0390225564 48.2927843,0.0561654135 48.4431863,0.0676691729 C48.5931373,0.0791729323 48.7478235,0.0845864662 48.9076961,0.0845864662 C49.0481765,0.0845864662 49.1967745,0.0791729323 49.3537157,0.0676691729 C49.5097549,0.0561654135 49.6712059,0.0390225564 49.8373922,0.0157894737 C49.8854216,0.181578947 49.9293922,0.323909774 49.9693039,0.443458647 C50.0092157,0.562330827 50.0468725,0.670150376 50.0818235,0.765789474 L51.8690588,5.58112782 C51.9617353,5.82721805 52.0512549,5.99458647 52.1376176,6.08413534 C52.2239804,6.17345865 52.3371765,6.22466165 52.4778824,6.23729323 L52.4778824,6.49218045 C52.2828333,6.46285714 52.0871078,6.44097744 51.8907059,6.42586466 C51.6945294,6.41165414 51.497,6.40398496 51.2987941,6.40398496 C51.1107353,6.40398496 50.9091471,6.41165414 50.6951569,6.42586466 C50.4811667,6.44097744 50.2511667,6.46285714 50.0053824,6.49218045 L50.0053824,6.23729323 C50.1745,6.22150376 50.290402,6.18924812 50.3524118,6.14165414 C50.4146471,6.09383459 50.4455392,6.0137594 50.4455392,5.90210526 C50.4455392,5.87323308 50.4435098,5.84210526 50.4387745,5.8087218 C50.4342647,5.77533835 50.4268235,5.74105263 50.4173529,5.70586466 L50.0053824,4.46120301 L48.0021275,4.46120301 L47.6377353,5.55270677 C47.6185686,5.61969925 47.6039118,5.6812782 47.5944412,5.73721805 C47.5849706,5.79315789 47.5802353,5.84165414 47.5802353,5.88293233 C47.5802353,5.99458647 47.6142843,6.08007519 47.6830588,6.13917293 C47.7520588,6.19781955 47.8551078,6.23075188 47.9922059,6.23729323 L47.9922059,6.49218045 C47.8005392,6.46285714 47.6208235,6.44097744 47.4530588,6.42586466 C47.2850686,6.41165414 47.1247451,6.40398496 46.9714118,6.40398496 C46.7894412,6.40398496 46.6194216,6.41165414 46.4613529,6.42586466 C46.3032843,6.44097744 46.1506275,6.46285714 46.0036078,6.49218045 L46.0036078,6.23729323 C46.2401471,6.21180451 46.4397059,5.97383459 46.6027353,5.52383459 C46.621451,5.46631579 46.6376863,5.42165414 46.6505392,5.38984962 L48.2988725,0.794210526 C48.3243529,0.720451128 48.3417157,0.662255639 48.3520882,0.619172932 C48.3613333,0.575639098 48.3662941,0.536616541 48.3662941,0.501654135 C48.3662941,0.42112782 48.334951,0.361353383 48.2727157,0.321203008 C48.2104804,0.281278195 48.1166765,0.258045113 47.9922059,0.251278195 L47.9922059,0.0157894737 Z M49.0132255,1.4043609 L48.289402,3.66631579 L49.7510294,3.66631579 L49.0132255,1.4043609 L49.0132255,1.4043609 Z" id="Fill-3" fill="#FFFFFE"></path>
                <path d="M52.7881569,0.0157894737 C52.9446471,0.0390225564 53.106098,0.0561654135 53.2722843,0.0676691729 C53.4382451,0.0791729323 53.6105196,0.0845864662 53.7895588,0.0845864662 C53.9331961,0.0845864662 54.0930686,0.0791729323 54.2687255,0.0676691729 C54.4441569,0.0561654135 54.6534118,0.037443609 54.8962647,0.0110526316 L56.5827059,4.48781955 L58.1255098,0.0157894737 C58.3298039,0.0390225564 58.5153824,0.0561654135 58.6826961,0.0676691729 C58.8500098,0.0791729323 59.0105588,0.0845864662 59.1636667,0.0845864662 C59.2784412,0.0845864662 59.420049,0.0782706767 59.5893922,0.0651879699 C59.7580588,0.0521052632 59.9400294,0.0356390977 60.1346275,0.0157894737 L60.1346275,0.261203008 C59.984451,0.280601504 59.8762157,0.323007519 59.810598,0.388421053 C59.7452059,0.45406015 59.7125098,0.551954887 59.7125098,0.683007519 C59.7125098,0.724736842 59.7134118,0.768496241 59.7149902,0.814736842 C59.7165686,0.861203008 59.7188235,0.911729323 59.7219804,0.965639098 L60.053,5.59533835 C60.0721667,5.85383459 60.1170392,6.01984962 60.1873922,6.09360902 C60.2575196,6.16691729 60.3905588,6.21496241 60.5853824,6.23729323 L60.5853824,6.49218045 C60.3621471,6.45992481 60.1540196,6.43533835 59.9607745,6.41887218 C59.7679804,6.40285714 59.5837549,6.39451128 59.4078725,6.39451128 C59.1496863,6.39451128 58.9165294,6.40285714 58.7095294,6.41887218 C58.5018529,6.43533835 58.304098,6.45992481 58.1160392,6.49218045 L58.1160392,6.23729323 C58.3489706,6.2018797 58.5018529,6.14210526 58.5751373,6.0575188 C58.6486471,5.97293233 58.685402,5.81413534 58.685402,5.58045113 C58.685402,5.52315789 58.683598,5.47443609 58.6804412,5.43451128 C58.6775098,5.39458647 58.6743529,5.35736842 58.6709706,5.32195489 L58.4274412,1.54578947 L56.7310784,6.49218045 L55.9357745,6.49218045 L54.072098,1.47879699 L53.8662255,5.46112782 C53.8662255,5.46428571 53.8662255,5.47398496 53.8662255,5.49 C53.8599118,5.55969925 53.8567549,5.62849624 53.8567549,5.69571429 C53.8567549,5.88135338 53.8928333,6.00992481 53.9643137,6.08165414 C54.0366961,6.15315789 54.1841667,6.20548872 54.4076275,6.23729323 L54.4026667,6.49218045 C54.2046863,6.46285714 54.0233922,6.44097744 53.8587843,6.42586466 C53.693951,6.41165414 53.5530196,6.40398496 53.4348627,6.40398496 C53.2621373,6.40398496 53.0905392,6.41165414 52.9193922,6.42586466 C52.7484706,6.44097744 52.5768725,6.46285714 52.4043725,6.49218045 L52.4043725,6.23729323 C52.762451,6.22466165 52.9597549,5.95759398 52.9947059,5.43699248 L52.9947059,5.42255639 L53.2970882,0.936992481 L53.2970882,0.788345865 C53.2970882,0.600225564 53.2619118,0.468947368 53.1913333,0.395413534 C53.1212059,0.322330827 52.9870392,0.275864662 52.7881569,0.256466165 L52.7881569,0.0157894737" id="Fill-4" fill="#FFFFFE"></path>
                <path d="M61.0002843,0.0157894737 C61.2081863,0.0455639098 61.4113529,0.0676691729 61.6093333,0.0823308271 C61.8077647,0.0969924812 62.0046176,0.10443609 62.1994412,0.10443609 C62.3913333,0.10443609 62.5879608,0.0969924812 62.7893235,0.0823308271 C62.9913627,0.0676691729 63.1956569,0.0455639098 63.4037843,0.0157894737 L63.4037843,0.261203008 C63.2211373,0.277218045 63.0919314,0.328421053 63.0159412,0.415037594 C62.9408529,0.50075188 62.9031961,0.638345865 62.9031961,0.826917293 L62.9031961,5.66729323 C62.9031961,5.85879699 62.9417549,5.99774436 63.0188725,6.08413534 C63.0957647,6.17007519 63.2240686,6.22150376 63.4037843,6.23729323 L63.4037843,6.49218045 C63.1573235,6.45992481 62.9365686,6.43511278 62.7417451,6.41864662 C62.5466961,6.40263158 62.3658529,6.39428571 62.1994412,6.39428571 C62.030098,6.39428571 61.8476765,6.40263158 61.6530784,6.41864662 C61.4575784,6.43511278 61.2402059,6.45992481 61.0002843,6.49218045 L61.0002843,6.23729323 C61.1829314,6.22150376 61.3121373,6.17007519 61.387451,6.08413534 C61.4629902,5.99774436 61.5004216,5.85879699 61.5004216,5.66729323 L61.5004216,0.826917293 C61.5004216,0.638345865 61.4629902,0.50075188 61.387451,0.415037594 C61.3121373,0.328421053 61.1829314,0.277218045 61.0002843,0.261203008 L61.0002843,0.0157894737" id="Fill-5" fill="#FFFFFE"></path>
                <path d="M41.6872745,10.0170677 C41.6827647,10.117218 41.6796078,10.2223308 41.6778039,10.3333083 C41.6753235,10.443609 41.6741961,10.6082707 41.6741961,10.8250376 C41.6741961,11.0815038 41.6796078,11.348797 41.6904314,11.6266917 C41.7017059,11.9045865 41.7177157,12.204812 41.7393627,12.5262406 L41.4322451,12.5262406 C41.3278431,11.9494737 41.0874706,11.503985 40.7113529,11.1918045 C40.3354608,10.8791729 39.8556176,10.7230827 39.272951,10.7230827 C38.4726863,10.7230827 37.8221471,11.0021053 37.3222353,11.5606015 C36.8218725,12.1193233 36.5715784,12.8506015 36.5715784,13.7546617 C36.5715784,14.7712782 36.8683235,15.6133083 37.4620392,16.2807519 C38.0555294,16.9484211 38.7996471,17.2815789 39.6957451,17.2815789 C40.1090686,17.2815789 40.5203627,17.2042105 40.9312059,17.0510526 C41.342049,16.897218 41.7585294,16.6621805 42.1804216,16.3468421 L41.9792843,17.7904511 C41.5661863,18.0904511 41.1190392,18.3146617 40.6391961,18.462406 C40.1582255,18.6106015 39.6308039,18.6843609 39.0569314,18.6843609 C38.5306373,18.6843609 38.0217059,18.5952632 37.5305882,18.4166165 C37.0390196,18.2386466 36.5954804,17.983985 36.1997451,17.6535338 C35.6824706,17.2231579 35.2835784,16.7034586 35.0028431,16.0946617 C34.7225588,15.4860902 34.5818529,14.8337594 34.5818529,14.1381203 C34.5818529,12.8034586 35.0364412,11.6972932 35.9456176,10.8218797 C36.8550196,9.94533835 38.0162941,9.50729323 39.4301176,9.50729323 C39.8384804,9.50729323 40.2330882,9.54992481 40.6139412,9.63451128 C40.9943431,9.71977444 41.3521961,9.84699248 41.6872745,10.0170677" id="Fill-6" fill="#0091B5"></path>
                <path d="M42.5182059,9.70781955 C42.8009706,9.74774436 43.0774216,9.77796992 43.3473333,9.79781955 C43.6172451,9.81789474 43.884902,9.82781955 44.1507549,9.82781955 C44.4118725,9.82781955 44.6797549,9.81789474 44.9537255,9.79781955 C45.2281471,9.77796992 45.5068529,9.74774436 45.7898431,9.70781955 L45.7898431,10.0416541 C45.5411275,10.0630827 45.3652451,10.1330075 45.2626471,10.2507519 C45.1598235,10.3682707 45.1088627,10.5552632 45.1088627,10.8121805 L45.1088627,13.2611278 L48.5408235,13.2611278 L48.5408235,10.8121805 C48.5408235,10.5552632 48.4880588,10.3671429 48.3834314,10.2473684 C48.2788039,10.127594 48.1042745,10.0569925 47.8596176,10.0351128 L47.8596176,9.70781955 C48.1419314,9.74774436 48.4204118,9.77796992 48.6939314,9.79781955 C48.967451,9.81789474 49.2369118,9.82781955 49.5018627,9.82781955 C49.7674902,9.82781955 50.0365,9.81789474 50.3100196,9.79781955 C50.5842157,9.77796992 50.8622451,9.74774436 51.1445588,9.70781955 L51.1380196,10.0416541 C50.8917843,10.0630827 50.7172549,10.1330075 50.6162353,10.2507519 C50.5140882,10.3682707 50.4631275,10.5552632 50.4631275,10.8121805 L50.4631275,17.3997744 C50.4631275,17.6607519 50.5149902,17.8504511 50.6191667,17.9679699 C50.7228922,18.0850376 50.8960686,18.1545113 51.1380196,18.1768421 L51.1445588,18.5235338 C50.8142157,18.4797744 50.5156667,18.4461654 50.2482353,18.4233835 C49.9810294,18.4017293 49.7323137,18.3897744 49.5018627,18.3897744 C49.2714118,18.3897744 49.0206667,18.4017293 48.749402,18.4233835 C48.4774608,18.4461654 48.1811667,18.4797744 47.8596176,18.5235338 L47.8596176,18.1768421 C48.1083333,18.1545113 48.2839902,18.0850376 48.3868137,17.9679699 C48.4894118,17.8504511 48.5408235,17.6607519 48.5408235,17.3997744 L48.5408235,14.4764662 L45.1088627,14.4764662 L45.1088627,17.3997744 C45.1088627,17.6607519 45.160951,17.8504511 45.2658039,17.9679699 C45.3706569,18.0850376 45.5454118,18.1545113 45.7898431,18.1768421 L45.7898431,18.5235338 C45.4543137,18.4797744 45.1541863,18.4461654 44.8885588,18.4233835 C44.6231569,18.4017293 44.3771471,18.3897744 44.1507549,18.3897744 C43.9198529,18.3897744 43.6720392,18.4017293 43.4064118,18.4233835 C43.1407843,18.4461654 42.8444902,18.4797744 42.5182059,18.5235338 L42.5182059,18.1768421 C42.7671471,18.1545113 42.9428039,18.0850376 43.0451765,17.9679699 C43.148,17.8504511 43.1991863,17.6607519 43.1991863,17.3997744 L43.1991863,10.8121805 C43.1991863,10.5552632 43.148,10.3682707 43.0451765,10.2507519 C42.9428039,10.1330075 42.7671471,10.0630827 42.5182059,10.0416541 L42.5182059,9.70781955" id="Fill-7" fill="#0091B5"></path>
                <path d="M51.7330882,9.70781955 C52.0160784,9.74774436 52.2925294,9.77796992 52.5622157,9.79781955 C52.8321275,9.81789474 53.1002353,9.82781955 53.3658627,9.82781955 C53.6272059,9.82781955 53.8946373,9.81789474 54.1688333,9.79781955 C54.4428039,9.77796992 54.7219608,9.74774436 55.0047255,9.70781955 L55.0047255,10.0416541 C54.7560098,10.0630827 54.5801275,10.132782 54.4775294,10.2503008 C54.3749314,10.3678195 54.3239706,10.5545865 54.3239706,10.8112782 L54.3239706,17.4 C54.3239706,17.6609774 54.3760588,17.8504511 54.4806863,17.9684211 C54.5857647,18.0850376 54.7602941,18.1545113 55.0047255,18.1768421 L55.0047255,18.5235338 C54.6694216,18.4797744 54.3690686,18.4461654 54.1036667,18.4233835 C53.8380392,18.4017293 53.5920294,18.3897744 53.3658627,18.3897744 C53.1349608,18.3897744 52.8866961,18.4017293 52.6215196,18.4233835 C52.3558922,18.4461654 52.059598,18.4797744 51.7330882,18.5235338 L51.7330882,18.1768421 C51.9822549,18.1545113 52.1579118,18.0850376 52.2602843,17.9684211 C52.3626569,17.8504511 52.4138431,17.6609774 52.4138431,17.4 L52.4138431,10.8112782 C52.4138431,10.5545865 52.3626569,10.3678195 52.2602843,10.2503008 C52.1579118,10.132782 51.9822549,10.0630827 51.7330882,10.0416541 L51.7330882,9.70781955" id="Fill-8" fill="#0091B5"></path>
                <path d="M55.7301275,9.70781955 C56.0126667,9.74774436 56.2886667,9.77796992 56.5583529,9.79781955 C56.8275882,9.81789474 57.0947941,9.82781955 57.3601961,9.82781955 C57.5861373,9.82781955 57.845,9.81789474 58.1365588,9.79781955 C58.4276667,9.77796992 58.7471863,9.74774436 59.0948922,9.70781955 L59.0948922,10.0416541 C58.8175392,10.0416541 58.6191078,10.1014286 58.4993725,10.2214286 C58.3800882,10.3409774 58.3205588,10.5376692 58.3205588,10.8119549 L58.3205588,17.2815789 L60.7930588,17.2815789 C61.2541863,17.2815789 61.6077549,17.1660902 61.8537647,16.9335338 C62.099549,16.7016541 62.2659608,16.3283459 62.3532255,15.8120301 L62.6470392,15.8578195 C62.5703725,16.2654135 62.5110686,16.6885714 62.4677745,17.1254887 C62.4251569,17.5621805 62.3958431,18.0146617 62.3787059,18.4838346 L55.7301275,18.4838346 L55.7301275,18.1364662 C55.9786176,18.1150376 56.1547255,18.046015 56.2573235,17.9303008 C56.3599216,17.8154887 56.4108824,17.6296241 56.4108824,17.3731579 L56.4108824,10.8119549 C56.4108824,10.5552632 56.3599216,10.3682707 56.2573235,10.2503008 C56.1547255,10.132782 55.9786176,10.0630827 55.7301275,10.0416541 L55.7301275,9.70781955" id="Fill-9" fill="#0091B5"></path>
                <path d="M62.8662157,9.73398496 L66.0048137,9.73398496 C66.7394608,9.73398496 67.355049,9.77030075 67.8527059,9.84225564 C68.3496863,9.91398496 68.7790196,10.0278947 69.1395784,10.1844361 C69.8566373,10.4977444 70.4235196,10.9957895 70.8402255,11.678797 C71.2578333,12.3618045 71.4659608,13.1424812 71.4659608,14.0210526 C71.4659608,15.4603759 70.9858922,16.5645113 70.0259804,17.3325564 C69.0656176,18.0994737 67.6797549,18.4838346 65.8679412,18.4838346 L62.8662157,18.4838346 L62.8662157,18.1364662 C63.1151569,18.1150376 63.2910392,18.046015 63.3931863,17.931203 C63.4962353,17.8154887 63.5476471,17.631203 63.5476471,17.3740602 L63.5476471,10.8437594 C63.5476471,10.5832331 63.4971373,10.3964662 63.3967941,10.2836842 C63.2962255,10.1709023 63.1194412,10.1034586 62.8662157,10.0818045 L62.8662157,9.73398496 Z M65.4568725,10.8830075 L65.4568725,17.315188 C65.5134706,17.3242105 65.5743529,17.3296241 65.6397451,17.3318797 C65.7049118,17.3339098 65.8048039,17.3352632 65.9394216,17.3352632 C67.0835588,17.3352632 67.9498922,17.0661654 68.539098,16.5290977 C69.1283039,15.9920301 69.4230196,15.2039098 69.4230196,14.1645113 C69.4230196,13.1075188 69.1197353,12.2943609 68.5129412,11.7245865 C67.9063725,11.1543609 67.0443235,10.8696992 65.9267941,10.8696992 C65.8002941,10.8696992 65.7035588,10.8708271 65.6361373,10.8730827 C65.5689412,10.8753383 65.5089608,10.8787218 65.4568725,10.8830075 L65.4568725,10.8830075 Z" id="Fill-10" fill="#0091B5"></path>
                <path d="M71.9331765,9.73398496 L75.7256961,9.73398496 C76.9821275,9.73398496 77.8991961,9.92706767 78.4771275,10.3121053 C79.0555098,10.6971429 79.3443627,11.3050376 79.3443627,12.1366917 C79.3443627,12.741203 79.1443529,13.2624812 78.7441078,13.6996241 C78.3440882,14.1365414 77.7875784,14.4401504 77.0743529,14.61 C77.4565588,15.1184211 77.9041569,15.772782 78.417598,16.5733083 C79.0994804,17.6415789 79.6402059,18.1768421 80.0406765,18.1768421 L80.1053922,18.1768421 L80.1053922,18.5235338 C79.7712157,18.4838346 79.4904804,18.4540602 79.2647647,18.4337594 C79.038598,18.4136842 78.8692549,18.4035338 78.7560588,18.4035338 C78.5603333,18.4035338 78.1452059,18.4393985 77.5106765,18.5106767 L77.3862059,18.5235338 C76.8738922,17.5621805 76.2977647,16.6398496 75.6591765,15.7560902 C75.0199118,14.8730075 74.7003922,14.4049624 74.7003922,14.3530827 C74.7003922,14.3095489 74.7179804,14.2768421 74.7529314,14.255188 C74.7876569,14.233985 74.8359118,14.2220301 74.8972451,14.2220301 L75.0478725,14.2220301 C75.738549,14.2220301 76.2912255,14.0607519 76.7056765,13.7368421 C77.1212549,13.4133835 77.3282549,12.9773684 77.3282549,12.4294737 C77.3282549,11.9427068 77.1631961,11.5673684 76.8330784,11.3041353 C76.5029608,11.0415789 76.0319118,10.9098496 75.4199314,10.9098496 L74.5240588,10.9098496 L74.5240588,17.4006767 C74.5240588,17.6609774 74.5761471,17.8511278 74.681,17.9684211 C74.7858529,18.0850376 74.9601569,18.1545113 75.2052647,18.1768421 L75.2052647,18.5235338 C74.8697353,18.4797744 74.5689314,18.4461654 74.3037549,18.4233835 C74.0383529,18.4017293 73.7923431,18.3897744 73.565951,18.3897744 C73.335049,18.3897744 73.0867843,18.4017293 72.8213824,18.4233835 C72.5562059,18.4461654 72.2596863,18.4797744 71.9331765,18.5235338 L71.9331765,18.1768421 C72.1818922,18.1545113 72.3577745,18.0850376 72.4603725,17.9684211 C72.5631961,17.8511278 72.6141569,17.6609774 72.6141569,17.4006767 L72.6141569,10.8448872 C72.6141569,10.5836842 72.564098,10.3969173 72.4637549,10.2839098 C72.3629608,10.1709023 72.1866275,10.1034586 71.9331765,10.0818045 L71.9331765,9.73398496" id="Fill-11" fill="#0091B5"></path>
                <path d="M80.0805882,9.73398496 L86.94,9.73398496 C86.94,10.14 86.9476667,10.524812 86.963,10.8884211 C86.9785588,11.2527068 87.0033627,11.5980451 87.0380882,11.9253383 L86.744951,11.9253383 C86.7054902,11.5188722 86.6010882,11.2481955 86.4310686,11.1128571 C86.261951,10.9775188 85.9074804,10.9098496 85.3690098,10.9098496 L82.6707941,10.9098496 L82.6707941,13.3143609 L84.4300686,13.3143609 C84.7730392,13.3143609 85.008,13.2654135 85.1345,13.1670677 C85.2594216,13.0684962 85.3333824,12.8862406 85.3557059,12.6196241 L85.6093824,12.6196241 C85.6093824,12.711203 85.6021667,12.8463158 85.5888627,13.0245113 C85.5665392,13.4634586 85.5561667,13.7569173 85.5561667,13.9051128 C85.5561667,14.0968421 85.559098,14.2993985 85.5651863,14.5121053 C85.5728529,14.7252632 85.582549,14.9490226 85.5958529,15.1845113 L85.33,15.1845113 C85.3121863,14.9129323 85.2447647,14.7302256 85.1272843,14.6343609 C85.0098039,14.537594 84.7782255,14.4895489 84.4300686,14.4895489 L82.6707941,14.4895489 L82.6707941,17.2815789 L85.6675588,17.2815789 C86.1516863,17.2815789 86.4894706,17.1868421 86.6775294,16.997594 C86.8660392,16.8090226 86.9907353,16.4447368 87.0509412,15.905188 L87.3715882,15.905188 C87.3109314,16.4021053 87.261098,16.8609023 87.2247941,17.2827068 C87.1875882,17.705188 87.1605294,18.1053383 87.1424902,18.4838346 L80.0805882,18.4838346 L80.0805882,18.1364662 C80.3299804,18.1150376 80.5054118,18.046015 80.6080098,17.9303008 C80.7108333,17.8154887 80.7620196,17.6296241 80.7620196,17.3731579 L80.7620196,10.8448872 C80.7620196,10.5836842 80.7119608,10.3969173 80.6113922,10.2839098 C80.5108235,10.1709023 80.3338137,10.1034586 80.0805882,10.0818045 L80.0805882,9.73398496" id="Fill-12" fill="#0091B5"></path>
                <path d="M87.7849118,18.5106767 L87.7849118,18.1768421 C88.0421961,18.158797 88.2183039,18.0884211 88.3123333,17.9645865 C88.4061373,17.8407519 88.4523627,17.5504511 88.4523627,17.0934586 L88.4523627,10.9745865 C88.4523627,10.6227068 88.4090686,10.387218 88.3215784,10.2701504 C88.2345392,10.152406 88.0555,10.0766165 87.7849118,10.0416541 L87.7849118,9.70781955 C88.020098,9.73894737 88.2566373,9.76218045 88.4931765,9.77796992 C88.7317451,9.79353383 88.9761765,9.80120301 89.2291765,9.80120301 C89.4815,9.80120301 89.7333725,9.79353383 89.9832157,9.77796992 C90.2344118,9.76218045 90.4835784,9.73894737 90.7325196,9.70781955 L94.6486078,15.7299248 L94.6486078,11.0009774 C94.6486078,10.6353383 94.5863725,10.3854135 94.4628039,10.2503008 C94.3378824,10.1154135 94.1065294,10.0439098 93.7676176,10.0351128 L93.7676176,9.70781955 C94.0104706,9.73894737 94.2519706,9.76218045 94.4909902,9.77796992 C94.7300098,9.79353383 94.9651961,9.80120301 95.1949706,9.80120301 C95.4292549,9.80120301 95.6563235,9.79353383 95.8757255,9.77796992 C96.0955784,9.76218045 96.3140784,9.73894737 96.531451,9.70781955 L96.531451,10.0351128 C96.2649216,10.0569925 96.0849804,10.1298496 95.990951,10.2539098 C95.8971471,10.3779699 95.8504706,10.6051128 95.8504706,10.9351128 L95.8504706,18.4838346 L94.3775686,18.4838346 L89.654902,11.3724812 L89.654902,17.1063158 C89.654902,17.5154887 89.7173627,17.7904511 89.8438627,17.9321053 C89.9703627,18.0735338 90.2143431,18.1545113 90.5755784,18.1768421 L90.5755784,18.5106767 C90.3144608,18.4707519 90.068902,18.4400752 89.8398039,18.4204511 C89.6116078,18.4003759 89.4034804,18.3897744 89.2158725,18.3897744 C88.9854216,18.3897744 88.7497843,18.4003759 88.5105392,18.4204511 C88.2706176,18.4400752 88.0284412,18.4707519 87.7849118,18.5106767" id="Fill-13" fill="#0091B5"></path>
                <path d="M97.5436765,9.73398496 L99.0815196,9.73398496 C99.0298824,10.5708271 98.8499412,11.2615038 98.543951,11.8062406 C98.2368333,12.3507519 97.8505686,12.6708271 97.3853824,12.7664662 L97.359451,12.7143609 C97.5035392,12.4750376 97.6088431,12.2289474 97.6744608,11.9760902 C97.7403039,11.7234586 97.773,11.4360902 97.773,11.1135338 C97.773,10.9044361 97.7547353,10.6865414 97.7173039,10.4600752 C97.6807745,10.2331579 97.6221471,9.99157895 97.5436765,9.73398496" id="Fill-14" fill="#0091B5"></path>
                <path d="M107.079882,10.0425564 C107.079882,10.4695489 107.087775,10.89 107.103559,11.3039098 C107.118892,11.7178195 107.141667,12.1254135 107.171431,12.5262406 L106.878745,12.5330075 C106.752471,11.9573684 106.44648,11.4963158 105.960098,11.1493985 C105.473039,10.8029323 104.88902,10.6294737 104.206461,10.6294737 C103.690088,10.6294737 103.284431,10.7393233 102.991294,10.9590226 C102.697931,11.1791729 102.551814,11.4823308 102.551814,11.8700752 C102.551814,12.4012782 103.223098,12.8781203 104.566343,13.3001504 C104.731853,13.3527068 104.857225,13.3942105 104.944716,13.4246617 C105.907333,13.7280451 106.597559,14.0783459 107.013814,14.4735338 C107.430745,14.8689474 107.638647,15.3642857 107.638647,15.96 C107.638647,16.7506015 107.279667,17.4045113 106.559902,17.9219549 C105.840814,18.4393985 104.904578,18.6976692 103.753,18.6976692 C103.221745,18.6976692 102.692069,18.6448872 102.164196,18.5409023 C101.636324,18.4364662 101.137314,18.2884962 100.668294,18.0974436 C100.672578,17.9102256 100.676186,17.7189474 100.677765,17.5229323 C100.680245,17.3271429 100.680922,17.0639098 100.680922,16.7336842 C100.680922,16.6430075 100.677765,16.4846617 100.671225,16.2606767 C100.664912,16.0369173 100.654765,15.7274436 100.641912,15.3313534 L100.90348,15.3313534 C101.012618,16.0186466 101.315676,16.5620301 101.813784,16.9619549 C102.312118,17.3616541 102.9365,17.5621805 103.683775,17.5621805 C104.266892,17.5621805 104.733657,17.4455639 105.083843,17.2134586 C105.434029,16.9811278 105.609235,16.6777444 105.609235,16.3033083 C105.609235,15.7430075 104.976961,15.2584962 103.712186,14.85 C103.542843,14.7976692 103.416569,14.7590977 103.334265,14.7322556 C102.325422,14.4058647 101.618284,14.0465414 101.211275,13.6529323 C100.804716,13.2593233 100.601775,12.7585714 100.601775,12.1493233 C100.601775,11.3580451 100.928059,10.7221805 101.5795,10.2417293 C102.230716,9.7612782 103.106971,9.52082707 104.206235,9.52082707 C104.744931,9.52082707 105.257922,9.56390977 105.745206,9.65120301 C106.230686,9.73804511 106.676931,9.86842105 107.079882,10.0425564" id="Fill-15" fill="#0091B5"></path>
                <path d="M23.4945,26.874812 C22.7605294,26.2619549 21.9523725,25.7357143 21.0792745,25.3204511 C22.1934216,23.9749624 23.0933529,22.4458647 23.7332941,20.7868421 C25.0731569,21.4635338 26.3086176,22.316391 27.4108137,23.3138346 C26.3446961,24.7344361 25.0152059,25.9452632 23.4945,26.874812 Z M6.54981373,26.5522556 C6.04381373,26.3496992 6.00322549,25.7424812 6.30696078,25.0538346 C6.6102451,24.3658647 8.41146078,20.9445113 8.87732353,19.547594 C9.34296078,18.1509023 9.34747059,17.857218 9.07440196,17.1888722 C8.80110784,16.5207519 8.04233333,16.0806767 7.23778431,15.8830827 C6.43346078,15.6857143 2.07901961,14.7999248 1.62330392,14.6023308 C1.16803922,14.4049624 0.925186275,14.0381955 1.01470588,13.5293233 C1.11031373,12.9866165 1.87517647,12.968797 2.22446078,12.9992481 C2.57351961,13.0296992 7.96656863,13.7724812 8.75578431,13.7724812 C9.545,13.7724812 10.0762549,13.7571429 11.0472157,13.0285714 C11.4670784,12.7136842 11.7417255,12.5043609 11.9189608,12.367218 C12.5961078,13.6384962 13.9330392,14.5044361 15.4733627,14.5044361 C15.8095686,14.5044361 16.135402,14.4606767 16.4474804,14.3830827 C17.3093039,14.3727068 21.3577549,14.3244361 21.8096373,14.3244361 C22.3154118,14.3244361 22.5176765,14.6481203 22.5176765,15.0128571 C22.5176765,15.3771429 22.4365,15.7008271 21.5462647,15.822406 C20.6558039,15.9442105 16.9724216,15.9642857 15.8792451,16.207218 C14.7867451,16.4501504 13.835402,16.7941353 13.0459608,17.9478947 C12.2565196,19.1021053 8.10772549,25.6615038 7.78414706,26.0866917 C7.46056863,26.5118797 7.05558824,26.7545865 6.54981373,26.5522556 Z M5.7637549,24.3117293 C5.49406863,24.008797 5.23295098,23.6981955 4.98919608,23.3731579 C5.60162745,22.8133083 6.256,22.2983459 6.946,21.8325564 C6.52185294,22.7262406 6.07019608,23.6688722 5.7637549,24.3117293 Z M7.91132353,17.0476692 C8.08833333,17.1791729 8.23490196,17.3456391 8.33096078,17.5635338 C8.49173529,17.9296241 8.41845098,18.381203 8.25902941,18.8709023 C8.10862745,18.2758647 7.99340196,17.6670677 7.91132353,17.0476692 Z M2.20529412,15.6345113 C3.98756863,16.0231579 6.54868627,16.576015 7.07588235,16.6928571 C7.25604902,16.7332331 7.42809804,16.7882707 7.5877451,16.8595489 C7.68876471,17.7130827 7.85585294,18.5460902 8.08337255,19.3538346 C8.07119608,19.3845113 8.05969608,19.415188 8.04706863,19.4463158 C7.93928431,19.7160902 7.61683333,20.412406 7.23214706,21.227594 C6.35747059,21.772782 5.53443137,22.3926316 4.77430392,23.0819549 C3.26645098,20.961203 2.3345,18.4030827 2.20529412,15.6345113 Z M9.01554902,2.88721805 C9.72990196,3.4662406 10.5155098,3.96090226 11.3570392,4.35631579 C10.2228235,5.68984962 9.29921569,7.20766917 8.63785294,8.85924812 C7.34015686,8.20195489 6.14122549,7.37887218 5.06608824,6.41954887 C6.14438235,5.00661654 7.48492157,3.80458647 9.01554902,2.88721805 Z M27.3032549,6.37240602 C26.3106471,7.26541353 25.2102549,8.04045113 24.023951,8.67699248 C24.3378333,8.20150376 24.4654608,7.58639098 23.9344314,6.92458647 C23.4739804,6.35097744 22.9260392,6.2675188 22.4135,6.38864662 C21.9816863,5.68691729 21.4998137,5.01947368 20.9703627,4.39330827 C21.8418824,3.99180451 22.6543235,3.48451128 23.391,2.88721805 C24.9047157,3.79443609 26.2312745,4.98 27.3032549,6.37240602 Z M24.8201569,14.7748872 C24.8023431,12.8129323 24.437951,10.9342105 23.7865098,9.19578947 C25.1448627,8.51729323 26.3994902,7.66308271 27.5208529,6.66180451 C29.1849706,8.94203008 30.1766765,11.7426316 30.2057647,14.7748872 L24.8201569,14.7748872 Z M24.8194804,15.0994737 L30.2044118,15.0994737 C30.1651765,18.0712782 29.2012059,20.8181955 27.5869216,23.0684211 C26.4651078,22.053609 25.2077745,21.1863158 23.8444608,20.4967669 C24.4577941,18.8111278 24.7991863,16.9946617 24.8194804,15.0994737 Z M19.0363333,12.3514286 C19.388549,12.1093985 22.4089902,10.0330827 23.2101569,9.46759398 C23.3141078,9.41977444 23.4187353,9.37285714 23.5217843,9.32345865 C24.1542843,11.0233083 24.5080784,12.8587218 24.5256667,14.7748872 L23.333951,14.7748872 C23.2169216,14.211203 22.6719118,13.5753383 22.1532843,13.5753383 L18.0428235,13.5753383 C18.4487059,13.2378947 18.7880686,12.8226316 19.0363333,12.3514286 Z M15.4733627,7.25639098 C17.2511275,7.25639098 18.6926863,8.69796992 18.6926863,10.4758647 C18.6926863,12.2544361 17.2511275,13.696015 15.4733627,13.696015 C13.695598,13.696015 12.2547157,12.2544361 12.2547157,10.4758647 C12.2547157,8.69796992 13.695598,7.25639098 15.4733627,7.25639098 Z M15.985451,0.910150376 L15.985451,5.12819549 C14.512549,5.10383459 13.109098,4.79481203 11.8292157,4.25030075 C13.0146176,2.91857143 14.4194216,1.78804511 15.985451,0.910150376 Z M11.5545686,4.12736842 C10.7394216,3.75428571 9.98064706,3.28172932 9.28568627,2.73180451 C11.1078725,1.6937594 13.1848627,1.05293233 15.4005294,0.927518797 C13.9594216,1.79345865 12.6615,2.87345865 11.5545686,4.12736842 Z M16.8813235,0.919172932 C19.1319412,1.02654135 21.241402,1.66736842 23.0908725,2.71443609 C22.3783235,3.28195489 21.5945196,3.76353383 20.7550196,4.14406015 C19.6413235,2.87954887 18.3343824,1.79030075 16.8813235,0.919172932 Z M16.3099314,5.12954887 L16.3099314,0.911052632 C17.882049,1.79210526 19.2933922,2.92601504 20.4817255,4.26406015 C19.1962059,4.8056391 17.7880196,5.11150376 16.3099314,5.12954887 Z M21.3843627,6.87924812 C20.803049,7.27984962 19.4221471,8.28315789 19.0232549,8.57345865 C18.4710294,7.54466165 17.4851863,6.78338346 16.3099314,6.53526316 L16.3099314,5.43406015 C17.8667157,5.41962406 19.3488627,5.09413534 20.6972941,4.51578947 C21.2215588,5.13090226 21.6991471,5.78661654 22.1273529,6.47684211 C21.8549608,6.58082707 21.6003824,6.73037594 21.3843627,6.87924812 Z M19.3366863,9.34330827 C19.745951,9.0462406 21.6729902,7.6475188 21.9305,7.47135338 C22.2193529,7.27398496 22.9323529,6.87924812 23.2663039,7.4562406 C23.6004804,8.03300752 23.4640588,8.29150376 22.598402,8.91383459 C21.7331961,9.53639098 19.5021961,11.0395489 19.5021961,11.0395489 L19.4525882,11.0695489 C19.4812255,10.8753383 19.5008431,10.6781955 19.5008431,10.4758647 C19.5008431,10.0822556 19.4419902,9.70308271 19.3366863,9.34330827 Z M11.4806078,9.9793985 C10.5883431,9.71864662 9.72516667,9.38887218 8.90145098,8.98962406 C9.56010784,7.33353383 10.4859706,5.81300752 11.6267255,4.48150376 C12.9647843,5.06796992 14.4376863,5.40180451 15.985451,5.43090226 L15.985451,6.48157895 C15.8174608,6.4606015 15.6469902,6.44796992 15.4733627,6.44796992 C13.4177941,6.44796992 11.7257157,7.98969925 11.4806078,9.9793985 Z M7.60352941,12.8596241 C6.73358824,12.7655639 5.68190196,12.6110526 4.54610784,12.4416541 C3.76861765,12.3257143 3.06779412,12.227594 2.46460784,12.1987218 C2.86462745,10.1600752 3.70638235,8.28090226 4.88637255,6.66338346 C5.98157843,7.64097744 7.20305882,8.47917293 8.52465686,9.14932331 C8.07908824,10.327218 7.76655882,11.5700752 7.60352941,12.8596241 Z M8.78780392,9.28105263 C9.6392549,9.69451128 10.5319706,10.0348872 11.4555784,10.3033083 C11.453098,10.3610526 11.4470098,10.4176692 11.4470098,10.4758647 C11.4470098,10.8408271 11.4997745,11.1924812 11.5906471,11.5285714 C11.3342647,11.7800752 10.293402,12.7662406 9.60565686,12.907218 C9.24960784,12.9803008 8.65363725,12.9622556 7.89666667,12.8896241 C8.05518627,11.6359398 8.35756863,10.4271429 8.78780392,9.28105263 Z M16.3099314,18.6755639 L16.3099314,16.9813534 C16.8950784,16.8669925 17.5113431,16.7869173 18.1866863,16.7738346 C19.2388235,16.7535338 21.1618039,16.8345113 22.1131471,16.5514286 C23.0640392,16.2678947 23.2462353,15.7211278 23.3479314,15.1136842 C23.3486078,15.1089474 23.3483824,15.1042105 23.3490588,15.0994737 L24.5252157,15.0994737 C24.5049216,16.9481955 24.173451,18.7202256 23.5792843,20.3666165 C21.3785,19.3012782 18.9147941,18.6942857 16.3099314,18.6755639 Z M20.8104902,25.1945865 C19.4325196,24.5828571 17.9104608,24.2381955 16.3099314,24.2210526 L16.3099314,19.0053383 C18.8755588,19.0175188 21.3022843,19.6118797 23.4696961,20.6593985 C22.8326863,22.3218045 21.9298235,23.8518045 20.8104902,25.1945865 Z M20.8860294,25.5507519 C21.7325196,25.9439098 22.5181275,26.4435338 23.2331569,27.0268421 C21.3604608,28.1165414 19.2140196,28.7873684 16.9201078,28.9030827 C18.4137549,28.0019549 19.7533922,26.8689474 20.8860294,25.5507519 Z M16.3099314,28.9184211 L16.3099314,24.523985 C17.8378529,24.5366165 19.2931667,24.856015 20.6149902,25.4269173 C19.4056863,26.8233835 17.9584902,28.0057895 16.3399216,28.9177444 C16.3297745,28.9177444 16.3198529,28.9184211 16.3099314,28.9184211 Z M11.4481373,25.5958647 C12.5683725,26.8901504 13.8890686,28.0037594 15.3594902,28.8933835 C13.1194706,28.7598496 11.0217353,28.1003008 9.18759804,27.0354135 C9.87782353,26.4708271 10.6338922,25.9833835 11.4481373,25.5958647 Z M11.2370784,25.3457143 C10.3910392,25.7535338 9.60678431,26.2662406 8.89220588,26.8608271 C8.73255882,26.7624812 8.57516667,26.661203 8.41957843,26.5569925 C8.48406863,26.4744361 8.54878431,26.386015 8.61395098,26.2892481 C8.93031373,25.8209774 9.50779412,24.9250376 10.1644216,23.9000752 C10.4961176,24.4019549 10.8537451,24.8846617 11.2370784,25.3457143 Z M13.3819412,18.9065414 C13.5422647,18.667218 13.6590686,18.4998496 13.7138627,18.433985 C14.1192941,17.9478947 14.4827843,17.4221053 15.3531765,17.1990226 C15.5610784,17.146015 15.7714608,17.0952632 15.985451,17.0483459 L15.985451,18.6789474 C15.099951,18.6888722 14.2304608,18.7666917 13.3819412,18.9065414 Z M15.985451,19.0107519 L15.985451,24.2230827 C14.3914608,24.2506015 12.8768431,24.6029323 11.5060882,25.2203008 C11.0844216,24.7166165 10.694098,24.1860902 10.3355686,23.632782 C11.3200588,22.0951128 12.4402941,20.3359398 13.1212745,19.2996992 C14.0516471,19.1248872 15.007951,19.0249624 15.985451,19.0107519 Z M15.9534314,28.9161654 C14.3531275,28.0141353 12.9196863,26.8477444 11.7185,25.4711278 C13.0272451,24.8909774 14.4692549,24.5587218 15.985451,24.5273684 L15.985451,28.9166165 C15.9746275,28.9166165 15.9640294,28.9161654 15.9534314,28.9161654 Z M16.203951,0.0920300752 C8.94339216,0.0920300752 2.90544118,5.3181203 1.63705882,12.2138346 C0.907147059,12.2952632 0.419637255,12.5866917 0.258637255,13.2622556 C-0.0151078431,14.4096992 0.58604902,15.0674436 1.40097059,15.4037594 C1.52318627,19.1406767 3.02743137,22.5261654 5.42033333,25.0673684 C5.07623529,26.0090977 5.34930392,26.8619549 6.00322549,27.18 C6.52365686,27.4328571 7.14240196,27.638797 7.83533333,27.1384962 C10.2165098,28.7727068 13.0978235,29.7306767 16.203951,29.7306767 C24.3860882,29.7306767 31.0186569,23.0959398 31.0186569,14.9113534 C31.0186569,6.72699248 24.3860882,0.0920300752 16.203951,0.0920300752 L16.203951,0.0920300752 Z" id="Fill-16" fill="#FFFFFE"></path>
                <path d="M34.4334804,21.0516541 C34.7133137,21.0906767 34.9868333,21.1190977 35.2542647,21.1389474 C35.5212451,21.1581203 35.7861961,21.1682707 36.0488922,21.1682707 C36.3077549,21.1682707 36.5724804,21.1581203 36.8439706,21.1389474 C37.1154608,21.1190977 37.3910098,21.0906767 37.6710686,21.0516541 L37.6710686,21.3816541 C37.4255098,21.4033083 37.2521078,21.4721053 37.1508627,21.5882707 C37.0496176,21.7046617 36.9991078,21.8900752 36.9991078,22.1445113 L36.9991078,24.5681955 L40.3981471,24.5681955 L40.3981471,22.1445113 C40.3981471,21.8900752 40.3467353,21.7033083 40.2432353,21.5855639 C40.1397353,21.4664662 39.9674608,21.3967669 39.7264118,21.3753383 L39.7264118,21.0516541 C40.0062451,21.0906767 40.2820196,21.1190977 40.5532843,21.1389474 C40.8247745,21.1581203 41.0919804,21.1682707 41.354902,21.1682707 C41.6173725,21.1682707 41.8848039,21.1581203 42.1562941,21.1389474 C42.4277843,21.1190977 42.7033333,21.0906767 42.9833922,21.0516541 L42.9770784,21.3816541 C42.7310686,21.4033083 42.5578922,21.4721053 42.4566471,21.5882707 C42.3556275,21.7046617 42.3046667,21.8900752 42.3046667,22.1445113 L42.3046667,28.6734586 C42.3046667,28.9321805 42.3563039,29.1193985 42.4598039,29.2353383 C42.5630784,29.3521805 42.7355784,29.4214286 42.9770784,29.4426316 L42.9833922,29.784812 C42.6559804,29.7421805 42.3596863,29.7103759 42.0945098,29.6887218 C41.8297843,29.6670677 41.5828725,29.6564662 41.354902,29.6564662 C41.1264804,29.6564662 40.8775392,29.6670677 40.6083039,29.6887218 C40.3392941,29.7103759 40.0450294,29.7421805 39.7264118,29.784812 L39.7264118,29.4426316 C39.9717451,29.4214286 40.1451471,29.3521805 40.2461667,29.2353383 C40.3474118,29.1193985 40.3981471,28.9321805 40.3981471,28.6734586 L40.3981471,25.7769925 L36.9991078,25.7769925 L36.9991078,28.6734586 C36.9991078,28.9321805 37.0507451,29.1193985 37.1542451,29.2353383 C37.2577451,29.3521805 37.4300196,29.4214286 37.6710686,29.4426316 L37.6710686,29.784812 C37.3393725,29.7421805 37.0421765,29.7103759 36.7794804,29.6887218 C36.5163333,29.6670677 36.2734804,29.6564662 36.0488922,29.6564662 C35.8209216,29.6564662 35.5751373,29.6670677 35.3124412,29.6887218 C35.0497451,29.7103759 34.7568333,29.7421805 34.4334804,29.784812 L34.4334804,29.4426316 C34.6790392,29.4214286 34.8524412,29.3521805 34.9536863,29.2353383 C35.0547059,29.1193985 35.1058922,28.9321805 35.1058922,28.6734586 L35.1058922,22.1445113 C35.1058922,21.8900752 35.0547059,21.7046617 34.9536863,21.5882707 C34.8524412,21.4721053 34.6790392,21.4033083 34.4334804,21.3816541 L34.4334804,21.0516541" id="Fill-17" fill="#0091B5"></path>
                <path d="M43.8943725,21.0780451 L50.6931275,21.0780451 C50.6931275,21.4784211 50.7003431,21.8587218 50.715451,22.2182707 C50.7305588,22.5787218 50.7553627,22.92 50.7900882,23.2430075 L50.4989804,23.2430075 C50.4601961,22.8428571 50.3569216,22.5751128 50.1889314,22.4418045 C50.0209412,22.3080451 49.6698529,22.2415038 49.1356667,22.2415038 L46.46,22.2415038 L46.46,24.6207519 L48.2048431,24.6207519 C48.5453333,24.6207519 48.7778137,24.5718045 48.9029608,24.4745865 C49.0276569,24.3778195 49.1011667,24.1973684 49.1228137,23.9350376 L49.3681471,23.9350376 C49.3681471,24.0257143 49.3618333,24.1590226 49.3487549,24.3354135 C49.3273333,24.7709774 49.3167353,25.0619549 49.3167353,25.2083459 C49.3167353,25.3984962 49.3201176,25.598797 49.3259804,25.8099248 C49.3327451,26.0210526 49.3422157,26.242782 49.3552941,26.476015 L49.0968824,26.476015 C49.0792941,26.2078195 49.0127745,26.0271429 48.8964216,25.9326316 C48.7802941,25.8376692 48.5493922,25.7903008 48.2048431,25.7903008 L46.46,25.7903008 L46.46,28.5568421 L49.4263235,28.5568421 C49.9088725,28.5568421 50.243951,28.4632331 50.4313333,28.2757895 C50.6187157,28.0881203 50.7425098,27.7276692 50.8027157,27.1928571 L51.1193039,27.1928571 C51.0593235,27.6841353 51.0108431,28.1390977 50.9738627,28.5568421 C50.9375588,28.9743609 50.9105,29.3715789 50.8933627,29.7464662 L43.8943725,29.7464662 L43.8943725,29.4038346 C44.1399314,29.382406 44.3135588,29.3149624 44.4148039,29.1999248 C44.516049,29.0857895 44.5670098,28.9017293 44.5670098,28.6472932 L44.5670098,22.1765414 C44.5670098,21.9180451 44.516951,21.7326316 44.4179608,21.6205263 C44.3189706,21.5084211 44.1444412,21.4416541 43.8943725,21.42 L43.8943725,21.0780451" id="Fill-18" fill="#0091B5"></path>
                <path d="M55.5657451,22.9267669 L54.5893725,25.9714286 L56.5608333,25.9714286 L55.5657451,22.9267669 Z M54.1891275,21.0516541 C54.3913922,21.0816541 54.5941078,21.1044361 54.796598,21.1190977 C54.9993137,21.1344361 55.2078922,21.142782 55.4236863,21.142782 C55.6128725,21.142782 55.8133333,21.1344361 56.0246176,21.1190977 C56.235451,21.1044361 56.453049,21.0816541 56.6771863,21.0516541 C56.741902,21.2756391 56.8007549,21.4687218 56.8548725,21.6306767 C56.9085392,21.7915038 56.9595,21.9378947 57.0068529,22.0666917 L59.4171176,28.5568421 C59.5420392,28.8888722 59.6626765,29.1151128 59.7790294,29.2353383 C59.8953824,29.3564662 60.0482647,29.4254887 60.2376765,29.4426316 L60.2376765,29.784812 C59.9752059,29.7464662 59.7113824,29.7169173 59.4462059,29.6977444 C59.1814804,29.6781203 58.915402,29.6690977 58.6481961,29.6690977 C58.3938431,29.6690977 58.1225784,29.6781203 57.833951,29.6977444 C57.5453235,29.7169173 57.2348235,29.7464662 56.9033529,29.784812 L56.9033529,29.4426316 C57.131549,29.4214286 57.2880392,29.3781203 57.3719216,29.3127068 C57.4558039,29.2488722 57.4979706,29.1415038 57.4979706,28.9896992 C57.4979706,28.9515789 57.4945882,28.9096241 57.4882745,28.8640602 C57.4817353,28.8193985 57.4720392,28.7727068 57.4589608,28.7246617 L56.9033529,27.0446617 L54.2022059,27.0446617 L53.7108627,28.5184962 C53.6851569,28.6089474 53.6655392,28.6915038 53.6526863,28.7670677 C53.6396078,28.842406 53.6335196,28.9087218 53.6335196,28.9644361 C53.6335196,29.1151128 53.6795196,29.2306015 53.7724216,29.31 C53.865098,29.3900752 54.0037745,29.4342857 54.1891275,29.4426316 L54.1891275,29.784812 C53.9304902,29.7464662 53.6885392,29.7169173 53.4616961,29.6977444 C53.2359804,29.6781203 53.0192843,29.6690977 52.8127353,29.6690977 C52.567402,29.6690977 52.3376275,29.6781203 52.1243137,29.6977444 C51.911,29.7169173 51.7053529,29.7464662 51.5073725,29.784812 L51.5073725,29.4426316 C51.8259902,29.4081203 52.0952255,29.0871429 52.3150784,28.4794737 C52.3405588,28.4023308 52.3622059,28.3416541 52.3797941,28.298797 L54.602902,22.1054887 C54.6371765,22.0062406 54.6610784,21.9277444 54.6737059,21.87 C54.6867843,21.8111278 54.693098,21.7590226 54.693098,21.7116541 C54.693098,21.6029323 54.6513824,21.5228571 54.5675,21.4687218 C54.4831667,21.414812 54.3571176,21.3836842 54.1891275,21.3753383 L54.1891275,21.0516541 L54.1891275,21.0516541 Z" id="Fill-19" fill="#0091B5"></path>
                <path d="M60.5028529,21.0516541 C60.7829118,21.0906767 61.0562059,21.1190977 61.3236373,21.1389474 C61.5906176,21.1581203 61.8557941,21.1682707 62.1184902,21.1682707 C62.3426275,21.1682707 62.5990098,21.1581203 62.8874118,21.1389474 C63.1760392,21.1190977 63.4928529,21.0906767 63.837402,21.0516541 L63.837402,21.3816541 C63.5616275,21.3816541 63.3647745,21.4407519 63.2461667,21.5591729 C63.1277843,21.677594 63.0682549,21.8731579 63.0682549,22.1445113 L63.0682549,28.5568421 L65.5179804,28.5568421 C65.9743725,28.5568421 66.3247843,28.4415789 66.5683137,28.2115038 C66.8111667,27.981203 66.976,27.6085714 67.0623627,27.0958647 L67.3595588,27.1418797 C67.2822157,27.5463158 67.2215588,27.965188 67.1784902,28.3989474 C67.1354216,28.8318045 67.1054314,29.2813534 67.0880686,29.7464662 L60.5028529,29.7464662 L60.5028529,29.4038346 C60.7486373,29.382406 60.9220392,29.3149624 61.0230588,29.1999248 C61.1243039,29.0857895 61.1752647,28.9017293 61.1752647,28.6472932 L61.1752647,22.1445113 C61.1752647,21.8900752 61.1243039,21.7046617 61.0230588,21.5882707 C60.9220392,21.4721053 60.7486373,21.4033083 60.5028529,21.3816541 L60.5028529,21.0516541" id="Fill-20" fill="#0091B5"></path>
                <path d="M66.6100294,21.0780451 L73.8737451,21.0780451 C73.8949412,21.5821805 73.9256078,22.0475188 73.9643922,22.4738346 C74.002951,22.9006015 74.0521078,23.3077444 74.1127647,23.6959398 L73.8218824,23.6959398 C73.7400294,23.1394737 73.5862451,22.7580451 73.3598529,22.551203 C73.1334608,22.3450376 72.7620784,22.2415038 72.2452549,22.2415038 L71.185451,22.2415038 L71.185451,28.1433835 C71.185451,28.6820301 71.2528725,29.0293985 71.3888431,29.1841353 C71.5245882,29.3390977 71.7841275,29.4254887 72.1676863,29.4426316 L72.1676863,29.784812 C71.7931471,29.7421805 71.4472451,29.7103759 71.1302059,29.6887218 C70.8138431,29.6670677 70.5152941,29.6564662 70.2356863,29.6564662 C69.954951,29.6564662 69.6604608,29.6670677 69.3499608,29.6887218 C69.0399118,29.7103759 68.6951373,29.7421805 68.3160882,29.784812 L68.3160882,29.4426316 C68.6951373,29.4254887 68.9526471,29.3390977 69.0881667,29.1841353 C69.2241373,29.0293985 69.2917843,28.6820301 69.2917843,28.1433835 L69.2917843,22.2415038 L68.2319804,22.2415038 C67.7106471,22.2415038 67.3372353,22.3457143 67.1106176,22.5545865 C66.8846765,22.7634586 66.734951,23.1442105 66.6616667,23.6959398 L66.3707843,23.6959398 C66.4267059,23.3120301 66.4742843,22.9087218 66.5130686,22.4837594 C66.5520784,22.0592481 66.584098,21.5907519 66.6100294,21.0780451" id="Fill-21" fill="#0091B5"></path>
                <path d="M74.7590196,21.0516541 C75.0388529,21.0906767 75.312598,21.1190977 75.5798039,21.1389474 C75.8467843,21.1581203 76.1119608,21.1682707 76.3746569,21.1682707 C76.6330686,21.1682707 76.8977941,21.1581203 77.1695098,21.1389474 C77.441451,21.1190977 77.716549,21.0906767 77.9966078,21.0516541 L77.9966078,21.3816541 C77.7515,21.4033083 77.5776471,21.4721053 77.4766275,21.5882707 C77.3753824,21.7046617 77.3246471,21.8900752 77.3246471,22.1445113 L77.3246471,24.5681955 L80.7239118,24.5681955 L80.7239118,22.1445113 C80.7239118,21.8900752 80.6722745,21.7033083 80.569,21.5855639 C80.4652745,21.4664662 80.2932255,21.3967669 80.0517255,21.3753383 L80.0517255,21.0516541 C80.3313333,21.0906767 80.6080098,21.1190977 80.8788235,21.1389474 C81.1503137,21.1581203 81.4170686,21.1682707 81.6804412,21.1682707 C81.9426863,21.1682707 82.2105686,21.1581203 82.4813824,21.1389474 C82.7528725,21.1190977 83.0284216,21.0906767 83.3089314,21.0516541 L83.3019412,21.3816541 C83.0570588,21.4033083 82.8836569,21.4721053 82.7821863,21.5882707 C82.6804902,21.7046617 82.6304314,21.8900752 82.6304314,22.1445113 L82.6304314,28.6734586 C82.6304314,28.9321805 82.6820686,29.1193985 82.7853431,29.2353383 C82.8890686,29.3521805 83.0611176,29.4214286 83.3019412,29.4426316 L83.3089314,29.784812 C82.9812941,29.7421805 82.685,29.7103759 82.4202745,29.6887218 C82.1557745,29.6670677 81.9088627,29.6564662 81.6804412,29.6564662 C81.4517941,29.6564662 81.2028529,29.6670677 80.9340686,29.6887218 C80.6646078,29.7103759 80.3705686,29.7421805 80.0517255,29.784812 L80.0517255,29.4426316 C80.2977353,29.4214286 80.4711373,29.3521805 80.5723824,29.2353383 C80.6731765,29.1193985 80.7239118,28.9321805 80.7239118,28.6734586 L80.7239118,25.7769925 L77.3246471,25.7769925 L77.3246471,28.6734586 C77.3246471,28.9321805 77.3762843,29.1193985 77.4797843,29.2353383 C77.5830588,29.3521805 77.7555588,29.4214286 77.9966078,29.4426316 L77.9966078,29.784812 C77.6646863,29.7421805 77.3674902,29.7103759 77.1050196,29.6887218 C76.842098,29.6670677 76.5985686,29.6564662 76.3746569,29.6564662 C76.1460098,29.6564662 75.900902,29.6670677 75.6379804,29.6887218 C75.3750588,29.7103759 75.0821471,29.7421805 74.7590196,29.784812 L74.7590196,29.4426316 C75.0048039,29.4214286 75.1779804,29.3521805 75.279451,29.2353383 C75.3804706,29.1193985 75.4312059,28.9321805 75.4312059,28.6734586 L75.4312059,22.1445113 C75.4312059,21.8900752 75.3804706,21.7046617 75.279451,21.5882707 C75.1779804,21.4721053 75.0048039,21.4033083 74.7590196,21.3816541 L74.7590196,21.0516541" id="Fill-22" fill="#0091B5"></path>
                <path d="M94.598549,21.3816541 C94.598549,21.8041353 94.6062157,22.2198496 94.6208725,22.6290226 C94.6366569,23.0388722 94.6592059,23.4415038 94.6891961,23.837594 L94.3980882,23.8445865 C94.2736176,23.2752632 93.9694314,22.8203008 93.4875588,22.477218 C93.0041078,22.134812 92.4252745,21.963609 91.7492549,21.963609 C91.2358137,21.963609 90.8342157,22.0723308 90.5433333,22.2893233 C90.252902,22.5076692 90.1076863,22.8078947 90.1076863,23.1915789 C90.1076863,23.7171429 90.7731078,24.1890226 92.104402,24.6076692 C92.2681078,24.6590977 92.3932549,24.7001504 92.4787157,24.7301504 C93.4356961,25.0319549 94.1205098,25.3788722 94.5338333,25.7711278 C94.9476078,26.1627068 95.1546078,26.6542105 95.1546078,27.2445113 C95.1546078,28.0294737 94.7978824,28.6779699 94.0848824,29.1909023 C93.3721078,29.7038346 92.4446667,29.9600752 91.3025588,29.9600752 C90.7771667,29.9600752 90.252902,29.9088722 89.7293137,29.8051128 C89.2057255,29.7020301 88.711902,29.5542857 88.2467157,29.3654887 C88.2503235,29.1798496 88.2539314,28.9896992 88.2559608,28.7961654 C88.2584412,28.6021805 88.2593431,28.3416541 88.2593431,28.0143609 C88.2593431,27.9239098 88.2559608,27.7673684 88.2496471,27.545188 C88.2435588,27.3232331 88.2336373,27.016015 88.2207843,26.6242105 L88.4787451,26.6242105 C88.5865294,27.305188 88.8871078,27.8433835 89.3802549,28.2406015 C89.8731765,28.6369173 90.4910196,28.8345113 91.2317549,28.8345113 C91.8085588,28.8345113 92.2714902,28.7196992 92.6182941,28.4893985 C92.9648725,28.2588722 93.1385,27.9584211 93.1385,27.5873684 C93.1385,27.0315789 92.5116373,26.5511278 91.2579118,26.146015 C91.0896961,26.0939098 90.9643235,26.0555639 90.8831471,26.0293985 C89.8828725,25.7061654 89.1822745,25.3497744 88.7793235,24.9593233 C88.3763725,24.57 88.1752353,24.0737594 88.1752353,23.4694737 C88.1752353,22.6849624 88.4981373,22.0547368 89.1446176,21.5785714 C89.7908725,21.102406 90.6585588,20.8646617 91.7492549,20.8646617 C92.2829902,20.8646617 92.7912451,20.9070677 93.2737941,20.9936842 C93.7565686,21.0798496 94.1985294,21.2088722 94.598549,21.3816541" id="Fill-23" fill="#0091B5"></path>
                <path d="M97.4165,29.784812 L97.4232647,29.4426316 C97.7330882,29.4214286 97.9376078,29.3546617 98.036598,29.2423308 C98.1360392,29.1302256 98.1858725,28.914812 98.1858725,28.5960902 L98.1858725,26.6889474 L95.8847451,21.9245865 C95.794098,21.7477444 95.6802255,21.6133083 95.5426765,21.5201504 C95.404451,21.4278947 95.2493137,21.3816541 95.0772647,21.3816541 L95.0772647,21.0516541 C95.3273333,21.0816541 95.5852941,21.1044361 95.8527255,21.1190977 C96.1192549,21.1344361 96.3997647,21.142782 96.6926765,21.142782 C97.0158039,21.142782 97.3175098,21.1344361 97.5973431,21.1190977 C97.8776275,21.1044361 98.1450588,21.0816541 98.3982843,21.0516541 L98.3982843,21.3816541 C98.2088725,21.4073684 98.0803431,21.4477444 98.0106667,21.501203 C97.9418922,21.5551128 97.9076176,21.633609 97.9076176,21.7369173 C97.9076176,21.7716541 97.9130294,21.8111278 97.9238529,21.8569173 C97.934451,21.9024812 97.9504608,21.9503008 97.9723333,22.0019549 L99.497098,25.3637594 L100.886569,22.1569173 C100.912275,22.1014286 100.932118,22.0425564 100.944745,21.9823308 C100.958049,21.9223308 100.964137,21.8666165 100.964137,21.8142857 C100.964137,21.6719549 100.930088,21.5724812 100.860412,21.5145113 C100.791412,21.4560902 100.641235,21.4098496 100.408755,21.3753383 L100.408755,21.0516541 C100.572461,21.0733083 100.761647,21.0895489 100.977441,21.1003759 C101.193235,21.111203 101.461794,21.116391 101.785147,21.116391 C102.124961,21.116391 102.3845,21.111203 102.563765,21.1003759 C102.742578,21.0895489 102.911696,21.0733083 103.071118,21.0516541 L103.064804,21.3816541 C102.875167,21.4118797 102.720029,21.4759398 102.599618,21.5756391 C102.478529,21.6746617 102.37052,21.8257895 102.276265,22.0278947 L100.092167,26.7275188 L100.092167,28.5960902 C100.092167,28.9105263 100.143578,29.124812 100.246853,29.2387218 C100.350353,29.3535338 100.556902,29.4214286 100.867402,29.4426316 L100.873716,29.784812 C100.611245,29.7421805 100.3375,29.7103759 100.053157,29.6887218 C99.7685882,29.6670677 99.463049,29.6564662 99.1354118,29.6564662 C98.8122843,29.6564662 98.509,29.6670677 98.2244314,29.6887218 C97.9396373,29.7103759 97.6710784,29.7421805 97.4165,29.784812" id="Fill-24" fill="#0091B5"></path>
                <path d="M109.766147,21.3816541 C109.766147,21.8041353 109.773363,22.2198496 109.788471,22.6290226 C109.803804,23.0388722 109.826804,23.4415038 109.856569,23.837594 L109.565686,23.8445865 C109.441216,23.2752632 109.137029,22.8203008 108.654706,22.477218 C108.172157,22.134812 107.591971,21.963609 106.916176,21.963609 C106.403412,21.963609 106.002039,22.0723308 105.711157,22.2893233 C105.420275,22.5076692 105.274608,22.8078947 105.274608,23.1915789 C105.274608,23.7171429 105.940706,24.1890226 107.271775,24.6076692 C107.43548,24.6590977 107.560176,24.7001504 107.646539,24.7301504 C108.602618,25.0319549 109.288108,25.3788722 109.701431,25.7711278 C110.115206,26.1627068 110.322206,26.6542105 110.322206,27.2445113 C110.322206,28.0294737 109.965931,28.6779699 109.252706,29.1909023 C108.539931,29.7038346 107.611814,29.9600752 106.470382,29.9600752 C105.944539,29.9600752 105.420275,29.9088722 104.896461,29.8051128 C104.372647,29.7020301 103.878824,29.5542857 103.413863,29.3654887 C103.417696,29.1798496 103.421078,28.9896992 103.423559,28.7961654 C103.425588,28.6021805 103.426265,28.3416541 103.426265,28.0143609 C103.426265,27.9239098 103.423559,27.7673684 103.416569,27.545188 C103.41048,27.3232331 103.400559,27.016015 103.388157,26.6242105 L103.646118,26.6242105 C103.754127,27.305188 104.054029,27.8433835 104.547627,28.2406015 C105.040775,28.6369173 105.658167,28.8345113 106.399127,28.8345113 C106.976157,28.8345113 107.439088,28.7196992 107.785667,28.4893985 C108.132245,28.2588722 108.305422,27.9584211 108.305422,27.5873684 C108.305422,27.0315789 107.678333,26.5511278 106.425059,26.146015 C106.256618,26.0939098 106.132147,26.0555639 106.050069,26.0293985 C105.050922,25.7061654 104.349647,25.3497744 103.946696,24.9593233 C103.543745,24.57 103.342608,24.0737594 103.342608,23.4694737 C103.342608,22.6849624 103.665961,22.0547368 104.311539,21.5785714 C104.95802,21.102406 105.826157,20.8646617 106.916176,20.8646617 C107.450814,20.8646617 107.958843,20.9070677 108.441167,20.9936842 C108.924167,21.0798496 109.365451,21.2088722 109.766147,21.3816541" id="Fill-25" fill="#0091B5"></path>
                <path d="M111.026412,21.0780451 L118.290578,21.0780451 C118.311549,21.5821805 118.34199,22.0475188 118.380098,22.4738346 C118.419108,22.9006015 118.468716,23.3077444 118.529147,23.6959398 L118.238265,23.6959398 C118.156186,23.1394737 118.002176,22.7580451 117.776235,22.551203 C117.550069,22.3450376 117.178461,22.2415038 116.661637,22.2415038 L115.601382,22.2415038 L115.601382,28.1433835 C115.601382,28.6820301 115.669255,29.0293985 115.805225,29.1841353 C115.940971,29.3390977 116.20051,29.4254887 116.584069,29.4426316 L116.584069,29.784812 C116.208853,29.7421805 115.863402,29.7103759 115.547265,29.6887218 C115.23,29.6670677 114.931902,29.6564662 114.651392,29.6564662 C114.371784,29.6564662 114.076618,29.6670677 113.766118,29.6887218 C113.45652,29.7103759 113.11152,29.7421805 112.732471,29.784812 L112.732471,29.4426316 C113.11152,29.4254887 113.369029,29.3390977 113.504549,29.1841353 C113.640745,29.0293985 113.708167,28.6820301 113.708167,28.1433835 L113.708167,22.2415038 L112.647912,22.2415038 C112.126804,22.2415038 111.753392,22.3457143 111.527,22.5545865 C111.30151,22.7634586 111.151784,23.1442105 111.077824,23.6959398 L110.787392,23.6959398 C110.843088,23.3120301 110.890667,22.9087218 110.929,22.4837594 C110.96801,22.0592481 111.000706,21.5907519 111.026412,21.0780451" id="Fill-26" fill="#0091B5"></path>
                <path d="M119.175402,21.0780451 L125.974157,21.0780451 C125.974157,21.4784211 125.980922,21.8587218 125.99648,22.2182707 C126.010912,22.5787218 126.035941,22.92 126.070892,23.2430075 L125.78001,23.2430075 C125.741,22.8428571 125.637951,22.5751128 125.469735,22.4418045 C125.301294,22.3080451 124.950431,22.2415038 124.416696,22.2415038 L121.741255,22.2415038 L121.741255,24.6207519 L123.485873,24.6207519 C123.825912,24.6207519 124.059069,24.5718045 124.183539,24.4745865 C124.308686,24.3778195 124.381745,24.1973684 124.403392,23.9350376 L124.649176,23.9350376 C124.649176,24.0257143 124.642186,24.1590226 124.628882,24.3354135 C124.607912,24.7709774 124.597088,25.0619549 124.597088,25.2083459 C124.597088,25.3984962 124.600245,25.598797 124.606784,25.8099248 C124.613549,26.0210526 124.622794,26.242782 124.635873,26.476015 L124.377686,26.476015 C124.360324,26.2078195 124.293578,26.0271429 124.177225,25.9326316 C124.061098,25.8376692 123.829971,25.7903008 123.485873,25.7903008 L121.741255,25.7903008 L121.741255,28.5568421 L124.706902,28.5568421 C125.189225,28.5568421 125.524529,28.4632331 125.711686,28.2757895 C125.899069,28.0881203 126.022863,27.7276692 126.083294,27.1928571 L126.400108,27.1928571 C126.339451,27.6841353 126.291422,28.1390977 126.254667,28.5568421 C126.218363,28.9743609 126.191304,29.3715789 126.173941,29.7464662 L119.175402,29.7464662 L119.175402,29.4038346 C119.421186,29.382406 119.594363,29.3149624 119.695382,29.1999248 C119.796402,29.0857895 119.847137,28.9017293 119.847137,28.6472932 L119.847137,22.1765414 C119.847137,21.9180451 119.797755,21.7326316 119.69899,21.6205263 C119.599324,21.5084211 119.424794,21.4416541 119.175402,21.42 L119.175402,21.0780451" id="Fill-27" fill="#0091B5"></path>
                <path d="M127.420902,21.0516541 C127.632412,21.0816541 127.849559,21.1044361 128.073696,21.1190977 C128.297833,21.1344361 128.53099,21.142782 128.77249,21.142782 C128.965961,21.142782 129.181078,21.1344361 129.418069,21.1190977 C129.654833,21.1044361 129.937373,21.0798496 130.26501,21.0453383 L132.539304,27.0830075 L134.620353,21.0516541 C134.896353,21.0816541 135.147775,21.1044361 135.373265,21.1190977 C135.599431,21.1344361 135.816353,21.142782 136.023127,21.142782 C136.177814,21.142782 136.369931,21.133985 136.597902,21.116391 C136.827,21.0992481 137.072108,21.0780451 137.334353,21.0516541 L137.334353,21.3816541 C137.132314,21.4073684 136.987098,21.4644361 136.898706,21.5533083 C136.810314,21.6403759 136.765667,21.7734586 136.765667,21.9503008 C136.765667,22.0062406 136.767696,22.0655639 136.769275,22.1280451 C136.771304,22.1909774 136.774686,22.2588722 136.778971,22.3319549 L137.224539,28.5764662 C137.250922,28.9256391 137.311353,29.1498496 137.405833,29.2488722 C137.500539,29.3474436 137.679353,29.4126316 137.941824,29.4426316 L137.941824,29.784812 C137.640569,29.7421805 137.359382,29.7103759 137.099167,29.6887218 C136.838275,29.6670677 136.589784,29.6564662 136.352343,29.6564662 C136.00351,29.6564662 135.689176,29.6670677 135.408667,29.6887218 C135.129059,29.7103759 134.861627,29.7421805 134.607049,29.784812 L134.607049,29.4426316 C134.922284,29.394812 135.129059,29.3149624 135.227824,29.1999248 C135.327265,29.0857895 135.376647,28.8715038 135.376647,28.5568421 C135.376647,28.4794737 135.374618,28.4140602 135.369657,28.3594737 C135.365373,28.306015 135.361539,28.2554887 135.357255,28.2081203 L135.028039,23.113985 L132.73999,29.784812 L131.667559,29.784812 L129.153118,23.0237594 L128.875314,28.3953383 C128.875314,28.4000752 128.875314,28.4127068 128.875314,28.4350376 C128.866294,28.5290977 128.862912,28.6215789 128.862912,28.7127068 C128.862912,28.9626316 128.911618,29.135188 129.007676,29.2328571 C129.104412,29.3300752 129.304196,29.3997744 129.605225,29.4426316 L129.599137,29.784812 C129.331931,29.7464662 129.087725,29.7169173 128.865618,29.6977444 C128.644412,29.6781203 128.453647,29.6690977 128.294225,29.6690977 C128.061294,29.6690977 127.82949,29.6781203 127.599039,29.6977444 C127.368814,29.7169173 127.13701,29.7464662 126.904529,29.784812 L126.904529,29.4426316 C127.386853,29.4254887 127.651804,29.0659398 127.699157,28.3633083 L127.699157,28.3436842 L128.106392,22.2929323 L128.106392,22.0921805 C128.106392,21.8381955 128.059039,21.6613534 127.963657,21.5625564 C127.868951,21.4637594 127.688333,21.4003759 127.420902,21.3753383 L127.420902,21.0516541" id="Fill-28" fill="#0091B5"></path>
                <path d="M30.2159118,28.436391 L30.3771373,28.436391 C30.5629412,28.436391 30.7146961,28.3705263 30.7146961,28.2015789 C30.7146961,28.08 30.6215686,27.9602256 30.3771373,27.9602256 C30.3085882,27.9602256 30.2519902,27.9629323 30.2159118,27.9694737 L30.2159118,28.436391 Z M30.2159118,29.2150376 L29.9897451,29.2150376 L29.9897451,27.813609 C30.1056471,27.801203 30.2206471,27.7829323 30.3906667,27.7829323 C30.5987941,27.7829323 30.7347647,27.8293985 30.8220294,27.8900752 C30.9043333,27.9473684 30.9483039,28.0423308 30.9483039,28.1778947 C30.9483039,28.363985 30.8251863,28.4742857 30.6788431,28.5207519 L30.6788431,28.5257143 C30.7994804,28.5505263 30.8862941,28.6651128 30.9090686,28.8624812 C30.9428922,29.086015 30.9710784,29.1683459 30.9994902,29.2150376 L30.7656569,29.2150376 C30.7302549,29.1683459 30.6966569,29.0395489 30.6680196,28.8577444 C30.6346471,28.6757143 30.5496373,28.6143609 30.3721765,28.6143609 L30.2159118,28.6143609 L30.2159118,29.2150376 Z M30.4501961,27.4245113 C29.900451,27.4245113 29.4501471,27.8990977 29.4501471,28.4810526 C29.4501471,29.0774436 29.900451,29.5457143 30.4544804,29.5457143 C31.0121176,29.5509023 31.4493431,29.0774436 31.4493431,28.4898496 C31.4493431,27.8990977 31.0121176,27.4245113 30.4544804,27.4245113 L30.4501961,27.4245113 Z M30.4544804,27.2321053 C31.1356863,27.2321053 31.6802451,27.7917293 31.6802451,28.4810526 C31.6802451,29.1904511 31.1356863,29.7444361 30.4501961,29.7444361 C29.7669608,29.7444361 29.2084216,29.1904511 29.2084216,28.4810526 C29.2084216,27.7917293 29.7669608,27.2321053 30.4501961,27.2321053 L30.4544804,27.2321053 L30.4544804,27.2321053 Z" id="Fill-29" fill="#FFFFFE"></path>
            </g>
        </g>
    </g>
</svg>