<?xml version="1.0" encoding="UTF-8"?>
<svg width="22px" height="25px" viewBox="0 0 22 25" version="1.1" xmlns="http://www.w3.org/2000/svg" xmlns:xlink="http://www.w3.org/1999/xlink">
    <!-- Generator: Sketch 47.1 (45422) - http://www.bohemiancoding.com/sketch -->
    <title>notification_head_icon</title>
    <desc>Created with Sketch.</desc>
    <defs></defs>
    <g id="Design-System" stroke="none" stroke-width="1" fill="none" fill-rule="evenodd" fill-opacity="0.800000012">
        <g id="Design_System_Export" transform="translate(-1502.000000, -110.000000)" fill="#8AA6B2">
            <g id="icons" transform="translate(1500.863281, 49.000000)">
                <g id="notification_head_icon" transform="translate(0.386719, 61.222656)">
                    <path d="M8.39691264,23.7883969 C9.91991264,24.5743969 11.6919126,24.3713969 12.9819126,23.4143969 L6.04291264,19.8353969 C6.01191264,21.4413969 6.87391264,23.0023969 8.39691264,23.7883969 M19.5909126,23.8303969 L18.9299126,25.1123969 L13.8839126,22.5103969 L6.25691264,18.5773969 L1.26291264,16.0003969 C1.26291264,16.0003969 1.92891264,14.7093969 1.93391264,14.7003969 C2.10891264,14.3613969 2.35691264,13.9833969 2.70991264,13.7893969 C3.04391264,13.6043969 3.38691264,13.7533969 3.73291264,13.7883969 C4.07191264,13.8233969 4.39691264,13.7353969 4.70191264,13.5913969 C5.30391264,13.3073969 5.78691264,12.8293969 6.29991264,12.4163969 C7.68591264,11.3043969 8.82691264,9.90139694 9.64091264,8.32239694 C9.98991264,7.64639694 10.2719126,6.95439694 10.4899126,6.25239694 L10.5009126,6.25839694 C10.5979126,5.97739694 10.7159126,5.70139694 10.8559126,5.42939694 C12.2449126,2.73639694 15.3169126,1.47739694 18.1239126,2.27439694 C18.1239126,2.27439694 18.6659126,0.589396941 20.0019126,1.27839694 C21.3439126,1.97039694 20.2919126,3.38039694 20.2919126,3.38039694 C22.6049126,5.19839694 23.3799126,8.45639694 21.9809126,11.1673969 C21.8639126,11.3943969 21.7349126,11.6123969 21.5939126,11.8183969 C21.5569126,11.8743969 21.5179126,11.9303969 21.4789126,11.9843969 C21.4069126,12.0823969 21.3329126,12.1783969 21.2569126,12.2703969 C20.9099126,12.7593969 20.5929126,13.2773969 20.3109126,13.8253969 C19.6519126,15.1013969 19.2189126,16.4973969 19.0149126,17.9183969 C18.9129126,18.6333969 18.8689126,19.3583969 18.8919126,20.0803969 C18.9149126,20.7813969 18.9059126,21.3703969 19.4229126,21.9023969 C19.9579126,22.4533969 19.9339126,23.1663969 19.5909126,23.8303969" id="Fill-1" transform="translate(11.970936, 13.112644) rotate(-5.000000) translate(-11.970936, -13.112644) "></path>
                </g>
            </g>
        </g>
    </g>
</svg>