<?xml version="1.0" encoding="UTF-8"?>
<svg width="11px" height="10px" viewBox="0 0 11 10" version="1.1" xmlns="http://www.w3.org/2000/svg" xmlns:xlink="http://www.w3.org/1999/xlink">
    <!-- Generator: Sketch 47.1 (45422) - http://www.bohemiancoding.com/sketch -->
    <title>skill_team_icon</title>
    <desc>Created with Sketch.</desc>
    <defs>
        <polygon id="path-1" points="1.57030422e-15 9.30906 1.57030422e-15 0.00016 10.342 0.00016 10.342 9.30906"></polygon>
    </defs>
    <g id="Design-System" stroke="none" stroke-width="1" fill="none" fill-rule="evenodd">
        <g id="Design_System_Export" transform="translate(-1642.000000, -278.000000)">
            <g id="icons" transform="translate(1500.863281, 49.000000)">
                <g id="skill_team_icon" transform="translate(141.499213, 229.597656)">
                    <g id="Page-1">
                        <mask id="mask-2" fill="white">
                            <use xlink:href="#path-1"></use>
                        </mask>
                        <g id="Clip-2"></g>
                        <path d="M7.0566,5.94006 C5.7026,5.94006 4.5056,6.60506 3.7706,7.62506 C4.5056,8.64506 5.7026,9.30906 7.0566,9.30906 C8.4096,9.30906 9.6076,8.64506 10.3426,7.62506 C9.6076,6.60506 8.4096,5.94006 7.0566,5.94006 M3.9966,6.04606 C4.3226,5.87706 4.6706,5.74806 5.0286,5.66306 C4.4346,5.39706 3.9606,4.91006 3.7136,4.30606 C3.4566,4.24906 3.1906,4.21706 2.9156,4.21706 C1.7156,4.21706 0.6516,4.80706 -0.0004,5.71206 C0.5946,6.53706 1.5296,7.09906 2.5986,7.19306 C2.9816,6.72106 3.4596,6.32806 3.9966,6.04606 M2.9156,3.78606 C3.1376,3.78606 3.3496,3.74806 3.5466,3.67806 C3.5326,3.57106 3.5246,3.46106 3.5246,3.34906 C3.5246,2.45806 3.9886,1.67206 4.6866,1.22106 C4.4146,0.50706 3.7246,6e-05 2.9156,6e-05 C1.8706,6e-05 1.0226,0.84706 1.0226,1.89306 C1.0226,2.93806 1.8706,3.78606 2.9156,3.78606 M4.9236,3.34906 C4.9236,2.17006 5.8786,1.21606 7.0566,1.21606 C8.2346,1.21606 9.1896,2.17006 9.1896,3.34906 C9.1896,4.52706 8.2346,5.48206 7.0566,5.48206 C5.8786,5.48206 4.9236,4.52706 4.9236,3.34906" id="Fill-1" fill-opacity="0.399999976" fill="#231F20" mask="url(#mask-2)"></path>
                    </g>
                </g>
            </g>
        </g>
    </g>
</svg>