<?xml version="1.0" encoding="UTF-8"?>
<svg width="26px" height="26px" viewBox="0 0 26 26" version="1.1" xmlns="http://www.w3.org/2000/svg" xmlns:xlink="http://www.w3.org/1999/xlink">
    <!-- Generator: Sketch 47.1 (45422) - http://www.bohemiancoding.com/sketch -->
    <title>view_outline_icon</title>
    <desc>Created with Sketch.</desc>
    <defs></defs>
    <g id="Design-System" stroke="none" stroke-width="1" fill="none" fill-rule="evenodd">
        <g id="Design_System_Export" transform="translate(-2059.000000, -224.000000)">
            <g id="icons" transform="translate(1500.863281, 49.000000)">
                <g id="edit_lineart" transform="translate(559.000000, 175.000000)">
                    <g id="view_outline_icon" transform="translate(0.386719, 0.597656)">
                        <path d="M20.5716286,24.768743 L3.42877143,24.768743 C1.54305714,24.768743 0.0002,23.2258858 0.0002,21.3401715 L0.0002,4.1973144 C0.0002,2.31245725 1.54305714,0.768742969 3.42877143,0.768742969 L20.5716286,0.768742969 C22.4573429,0.768742969 24.0002,2.31245725 24.0002,4.1973144 L24.0002,21.3401715 C24.0002,23.2258858 22.4573429,24.768743 20.5716286,24.768743" id="Fill-1" stroke="#9DB4BE" stroke-width="1"></path>
                        <path d="M18.8311187,12.5299 C18.8311187,12.5299 15.6841187,16.5599 11.8011187,16.5599 C7.91811875,16.5599 4.77111875,12.5299 4.77111875,12.5299 C4.77111875,12.5299 7.91811875,8.4999 11.8011187,8.4999 C15.6841187,8.4999 18.8311187,12.5299 18.8311187,12.5299 Z" id="Stroke-1" stroke="#9DB4BE" stroke-width="1"></path>
                        <path d="M13.8750188,12.4474 C13.8750188,13.6324 12.9150188,14.5924 11.7300188,14.5924 C10.5450188,14.5924 9.58501875,13.6324 9.58501875,12.4474 C9.58501875,11.2624 10.5450188,10.3024 11.7300188,10.3024 C12.9150188,10.3024 13.8750188,11.2624 13.8750188,12.4474" id="Fill-3" fill="#9DB4BE" fill-rule="evenodd"></path>
                    </g>
                </g>
            </g>
        </g>
    </g>
</svg>