<?xml version="1.0" encoding="UTF-8"?>
<svg width="133px" height="34px" viewBox="0 0 133 34" version="1.1" xmlns="http://www.w3.org/2000/svg" xmlns:xlink="http://www.w3.org/1999/xlink">
    <!-- Generator: Sketch 47.1 (45422) - http://www.bohemiancoding.com/sketch -->
    <title>ford_sec_logo</title>
    <desc>Created with Sketch.</desc>
    <defs></defs>
    <g id="Page-1" stroke="none" stroke-width="1" fill="none" fill-rule="evenodd">
        <g id="Graphic_Assets" transform="translate(-127.000000, -170.000000)" fill="#002E7D">
            <g id="header" transform="translate(127.000000, 111.000000)">
                <g id="ford_sec_logo" transform="translate(0.550778, 58.599710)">
                    <g>
                        <g id="Group">
                            <path d="M28.8480639,14.8663728 C29.8027283,13.2743741 30.9991944,11.8373061 32.3949555,10.604058 C32.8541699,11.6823754 33.1949224,12.8068278 33.412335,13.9574462 C33.3983983,14.1406087 33.3983983,14.3244598 33.412335,14.5083108 C33.43324,14.680456 33.4262717,14.7630857 33.1823793,14.7630857 C31.7817404,14.8732586 30.42988,14.9145735 28.9247158,14.9903174 C28.8480639,15.004089 28.7923171,14.9352309 28.8480639,14.8663728 Z" id="Fill-1"></path>
                            <path d="M28.01883,16.6082755 C27.8090826,16.5841752 27.604213,16.6840194 27.4962035,16.8630504 C24.9388181,21.0289639 22.2072238,25.5253962 19.2108322,28.5344941 C16.3259341,31.433419 13.873074,32.4112037 11.3505303,32.5971205 C20.0519123,35.6585505 29.6166733,31.1696926 32.7154997,22.5720734 C33.357285,20.7900264 33.6847976,18.9122667 33.6841007,17.021424 L33.6841007,16.09184 L33.5029236,16.09184 C31.990791,16.1813555 29.6215511,16.4085871 28.01883,16.6082755" id="Fill-3"></path>
                            <path d="M5.00932935,21.22156 C6.11241958,19.8423327 7.6538192,18.8721225 9.38545485,18.467237 C9.88369206,18.3377838 10.4139837,18.4445138 10.8209355,18.7564409 C11.1386924,19.038759 11.1651721,19.5214541 10.8801665,19.8361355 C10.8251165,19.8967306 10.7603108,19.9483742 10.6885368,19.9890004 C9.32622385,20.6231833 8.1931697,21.6539887 7.44128444,22.9430118 C6.80507384,24.1225507 6.87754471,25.5513557 7.62942996,26.6613479 C9.05794227,28.7959482 13.0508084,28.858609 16.7649404,25.4501343 C17.6736136,24.6389862 18.5349019,23.7761945 19.3432309,22.8679565 C20.9041419,21.1203386 22.3563466,19.2811394 23.6914829,17.3593106 C23.7089038,17.3262587 23.7089038,17.2876982 23.6914829,17.2553349 C23.6705779,17.2147086 23.6252836,17.192674 23.5799893,17.2002484 C22.1493865,17.2271031 20.7654716,17.7097982 19.6359017,18.5774099 C19.3083891,18.8425135 18.8254823,18.7950014 18.5572007,18.4713685 C18.5544133,18.467237 18.551626,18.4637941 18.5488387,18.4603512 C18.3293355,18.0492685 18.4805488,17.5397187 18.8902879,17.3104213 C20.8693001,15.9332598 23.0294894,15.7060282 25.2314889,15.3341946 C25.3443762,15.3286859 25.4482047,15.269468 25.510223,15.175821 C26.4161089,14.0258912 27.0990074,12.99302 28.0606401,11.8293186 C29.0327253,10.7165721 30.1002769,9.68920961 31.2521456,8.75824843 L31.3845443,8.64807551 C30.7357907,7.56218367 29.9650909,6.5527243 29.0849879,5.63966623 C25.8586406,5.18451435 22.6113883,5.08811305 19.4616929,6.2380429 C16.1099152,7.47817682 14.6395928,10.1016695 15.3503648,11.8568618 C15.8520862,13.103193 17.5105541,13.3028814 19.0644968,12.5454425 C20.4198414,11.8850936 21.5682259,10.8735685 22.388401,9.61897437 C22.862249,8.93039362 23.8587234,9.41928595 23.3221603,10.6656171 C21.9284897,13.9570331 19.1968955,16.5667541 15.9008646,16.676927 C13.5162943,16.8359892 11.4529651,15.0546308 11.292693,12.6983075 C11.2808468,12.5330481 11.2794531,12.3671001 11.2878151,12.2011522 C11.2878151,7.23648498 16.8624973,3.9381832 22.764692,3.4837199 C23.9883348,3.38663002 25.2168554,3.3549553 26.4439823,3.38800718 C18.8470841,-1.80320308 8.43009369,0.0738680408 3.17665259,7.58077536 C-0.867082489,13.3586564 -0.772312892,21.0315117 3.41357658,26.7102371 C3.20034498,24.7450277 3.77314358,22.7756867 5.00932935,21.22156" id="Fill-5"></path>
                        </g>
                        <polygon id="Fill-7" points="42.5339783 11.5128469 50.4082169 11.5128469 50.4082169 13.2893852 44.4154336 13.2893852 44.4154336 16.3329121 50.2549131 16.3329121 50.2549131 18.0956788 44.4084652 18.0956788 44.4084652 22.8744292 42.5339783 22.8744292"></polygon>
                        <path d="M58.1147969,18.6259548 C58.1147969,16.8494165 57.4813736,15.8234312 55.5783165,15.8234312 C53.6759562,15.8234312 53.0418361,16.8494165 53.0418361,18.6259548 C53.0418361,20.4024932 53.6620195,21.4422501 55.5783165,21.4422501 C57.4946135,21.4422501 58.1147969,20.3956074 58.1147969,18.619069 L58.1147969,18.6259548 Z M51.2230961,18.5777542 C51.2230961,15.6719434 52.450223,14.1088651 55.5783165,14.1088651 C58.7078037,14.1088651 59.9335369,15.6719434 59.9335369,18.5777542 C59.9335369,21.4835649 58.7078037,23.0466432 55.5783165,23.0466432 C52.450223,23.0466432 51.2230961,21.4835649 51.2230961,18.5777542 L51.2230961,18.5777542 Z" id="Fill-9"></path>
                        <path d="M61.2580117,14.4117718 L62.6516823,14.3015989 L62.8398278,15.2793835 C63.194517,14.7009757 64.2334983,14.2396266 65.7170606,14.2051976 L65.7170606,15.9955075 C63.6265548,15.9955075 63.0558467,16.9732922 63.0558467,18.4606266 L63.0558467,22.8675434 L61.2433782,22.8675434 L61.2433782,14.4117718 L61.2580117,14.4117718 Z" id="Fill-11"></path>
                        <path d="M73.1110403,18.5432563 C73.1110403,16.5394863 72.4769202,15.7889333 70.4909397,15.7889333 C68.6303895,15.7889333 68.184415,16.8631193 68.184415,18.5432563 C68.184415,20.2233933 68.6303895,21.4077522 70.4909397,21.4077522 C72.3514899,21.4077522 73.1110403,20.5814553 73.1110403,18.5432563 M66.3587066,18.5432563 C66.3587066,16.0023933 67.1809722,14.1225679 70.1564588,14.1225679 C71.8915786,14.1225679 72.7138442,14.4599725 73.1180087,15.0590377 L73.1180087,10.9964113 L74.9297804,10.9964113 L74.9297804,22.7986853 L73.5361098,22.9364015 L73.3340276,22.0205891 C72.8044328,22.7091698 71.8769451,23.0334914 70.0798069,23.0334914 C67.1321937,23.025917 66.3587066,21.1185483 66.3587066,18.5432563" id="Fill-13"></path>
                        <path d="M86.4985699,22.0372527 C88.8148503,22.0372527 89.9729905,20.8508281 89.9729905,18.4800446 C89.9729905,16.1085725 88.8148503,14.9228364 86.4985699,14.9228364 C84.1906514,14.9228364 83.0366922,16.1085725 83.0366922,18.4800446 C83.0366922,20.8508281 84.1906514,22.0372527 86.4985699,22.0372527 M86.4985699,23.2016428 C83.3377251,23.2016428 81.7573027,21.6199728 81.7573027,18.4552557 C81.7573027,15.2988015 83.3377251,13.7205745 86.4985699,13.7205745 C89.6594146,13.7205745 91.239837,15.2988015 91.239837,18.4552557 C91.239837,21.6199728 89.6594146,23.2016428 86.4985699,23.2016428" id="Fill-15"></path>
                        <path d="M94.0616715,18.3684256 L96.9465695,18.3684256 C97.6238934,18.3684256 98.1256148,18.2465469 98.4517337,18.0027893 C98.7778526,17.7590317 98.940912,17.3224715 98.940912,16.6944858 C98.940912,16.0671888 98.7778526,15.6333829 98.4517337,15.3937568 C98.1256148,15.1541307 97.6113503,15.0336291 96.9089404,15.0336291 L94.0616715,15.0336291 L94.0616715,18.3684256 Z M98.7276804,23.0535291 L96.6580797,19.5211098 L94.0616715,19.5211098 L94.0616715,23.0535291 L92.819911,23.0535291 L92.819911,13.869239 L96.9591125,13.869239 C98.1047097,13.869239 98.9346405,14.1006022 99.4489049,14.5633284 C99.9631694,15.0260547 100.220302,15.7201441 100.220302,16.6455966 C100.220302,18.239661 99.4719005,19.1699336 97.9750983,19.4343486 L100.082328,23.0535291 L98.7276804,23.0535291 Z" id="Fill-17"></path>
                        <path d="M103.243034,21.9256338 L106.165561,21.9256338 C106.859609,21.9256338 107.367602,21.8058207 107.689539,21.5661946 C108.011477,21.3265685 108.172446,20.9375204 108.172446,20.401116 C108.172446,19.872286 108.011477,19.4921894 107.689539,19.2608263 C107.367602,19.0294632 106.851247,18.9137816 106.140475,18.9137816 L103.243034,18.9137816 L103.243034,21.9256338 Z M103.243034,17.748703 L106.140475,17.748703 C106.809437,17.748703 107.275619,17.6247584 107.539023,17.3768694 C107.802427,17.1289803 107.934129,16.7736726 107.934129,16.3109464 C107.934129,15.873009 107.794065,15.5466217 107.513937,15.3317845 C107.233809,15.1162588 106.775988,15.0095288 106.140475,15.0095288 L103.243034,15.0095288 L103.243034,17.748703 Z M102.001273,23.0535291 L102.001273,13.869239 L106.102846,13.869239 C107.181547,13.869239 107.969667,14.0524015 108.467208,14.4207922 C108.964748,14.7884943 109.213518,15.3607049 109.213518,16.137424 C109.213518,17.2935511 108.824684,17.9924606 108.047713,18.2320867 C108.557099,18.3553426 108.919454,18.5997888 109.131988,18.9626708 C109.34522,19.32693 109.451836,19.8433656 109.451836,20.5119775 C109.451836,21.4381186 109.173799,22.0929589 108.617724,22.477187 C108.06165,22.8607264 107.198271,23.0535291 106.027587,23.0535291 L102.001273,23.0535291 Z" id="Fill-19"></path>
                        <path d="M113.27774,23.0533225 L113.27774,22.0493717 L116.388413,19.0994918 C117.157022,18.3723506 117.671983,17.8249289 117.931206,17.4572267 C118.190429,17.0895246 118.319343,16.661916 118.319343,16.1744008 C118.319343,15.7034116 118.177189,15.3625641 117.893577,15.1518584 C117.609268,14.9411527 117.127755,14.8357998 116.451128,14.8357998 C115.464409,14.8357998 114.624026,15.0217166 113.929978,15.3935502 L113.389931,14.401994 C114.243554,13.9475307 115.296472,13.720299 116.550776,13.720299 C117.56258,13.720299 118.313769,13.9062158 118.802947,14.2780494 C119.292125,14.649883 119.536018,15.2448168 119.536018,16.0628507 C119.536018,16.7245768 119.384108,17.3009189 119.078197,17.791877 C118.77368,18.2835236 118.214818,18.913575 117.404399,19.6820311 L114.97105,21.9873995 L119.674688,21.9873995 L119.674688,23.0533225 L113.27774,23.0533225 Z" id="Fill-21"></path>
                        <polygon id="Fill-23" points="121.217342 23.0533913 122.747592 23.0533913 122.747592 21.4173235 121.217342 21.4173235"></polygon>
                        <path d="M126.930694,21.8947165 C127.227546,22.0145296 127.576661,22.0744361 127.978038,22.0744361 C128.379415,22.0744361 128.726439,22.0145296 129.01911,21.8947165 C129.31178,21.7749035 129.548008,21.6158413 129.728488,21.4175301 C129.907575,21.2192188 130.049729,20.961001 130.154254,20.6428767 C130.25878,20.3247524 130.329857,19.9935451 130.368183,19.6506319 C130.405115,19.3084072 130.424626,18.909719 130.424626,18.4552557 C130.424626,17.8768478 130.392572,17.3852012 130.329857,16.9796271 C130.267142,16.5747417 130.150073,16.2049738 129.978652,15.8710121 C129.80723,15.5363619 129.557066,15.2857185 129.22607,15.1211477 C128.89577,14.9558883 128.480456,14.8732586 127.978038,14.8732586 C127.476316,14.8732586 127.058215,14.9558883 126.723734,15.1211477 C126.389253,15.2857185 126.136302,15.5363619 125.964881,15.8710121 C125.793459,16.2049738 125.676391,16.5726759 125.613676,16.9741185 C125.551657,17.3748725 125.5203,17.8678963 125.5203,18.4552557 C125.5203,18.909719 125.538417,19.3084072 125.576743,19.6506319 C125.613676,19.9935451 125.684753,20.3247524 125.789278,20.6428767 C125.893803,20.961001 126.035958,21.2192188 126.216438,21.4175301 C126.395525,21.6158413 126.633843,21.7749035 126.930694,21.8947165 M127.978038,23.1899369 C127.258904,23.1899369 126.653354,23.0804526 126.159995,22.8607953 C125.665938,22.6425152 125.283376,22.3154393 125.01161,21.8816335 C124.739844,21.4485162 124.547518,20.9568695 124.43463,20.4073821 C124.321743,19.8578947 124.265299,19.2071859 124.265299,18.4552557 C124.265299,17.6943739 124.321743,17.0402222 124.43463,16.4900462 C124.547518,15.9412474 124.739844,15.4516665 125.01161,15.0219921 C125.283376,14.5923177 125.665938,14.2679961 126.159995,14.0483389 C126.653354,13.8300588 127.258904,13.7205745 127.978038,13.7205745 C128.68881,13.7205745 129.286694,13.8300588 129.771692,14.0483389 C130.256689,14.2679961 130.635071,14.5923177 130.906836,15.0219921 C131.178602,15.4516665 131.373019,15.9412474 131.490088,16.4900462 C131.607156,17.0402222 131.66569,17.6943739 131.66569,18.4552557 C131.66569,19.2071859 131.607156,19.8599604 131.490088,20.4135793 C131.373019,20.9665097 131.180693,21.4588449 130.913108,21.8878307 C130.645523,22.3175051 130.267142,22.6425152 129.777963,22.8607953 C129.288785,23.0804526 128.68881,23.1899369 127.978038,23.1899369" id="Fill-25"></path>
                    </g>
                </g>
            </g>
        </g>
    </g>
</svg>