<?xml version="1.0" encoding="UTF-8"?>
<svg width="33px" height="20px" viewBox="0 0 33 20" version="1.1" xmlns="http://www.w3.org/2000/svg" xmlns:xlink="http://www.w3.org/1999/xlink">
    <!-- Generator: Sketch 47.1 (45422) - http://www.bohemiancoding.com/sketch -->
    <title>reports_icon</title>
    <desc>Created with Sketch.</desc>
    <defs></defs>
    <g id="Page-1" stroke="none" stroke-width="1" fill="none" fill-rule="evenodd">
        <g id="Graphic_Assets" transform="translate(-261.000000, -331.000000)" fill="#FFFFFF">
            <g id="navigation" transform="translate(127.000000, 251.000000)">
                <g id="reports_icon" transform="translate(133.000000, 79.000000)">
                    <g id="Group-15" transform="translate(0.976625, 0.748556)">
                        <path d="M3.2501,13.4998 C1.4551,13.4998 0.0001,14.9548 0.0001,16.7498 C0.0001,18.5448 1.4551,19.9998 3.2501,19.9998 C5.0451,19.9998 6.5001,18.5448 6.5001,16.7498 C6.5001,14.9548 5.0451,13.4998 3.2501,13.4998" id="Fill-1"></path>
                        <path d="M11.9606,4.6102 C10.1656,4.6102 8.7106,6.0652 8.7106,7.8602 C8.7106,9.6552 10.1656,11.1102 11.9606,11.1102 C13.7556,11.1102 15.2106,9.6552 15.2106,7.8602 C15.2106,6.0652 13.7556,4.6102 11.9606,4.6102" id="Fill-3"></path>
                        <path d="M19.6285,10.2498 C17.8335,10.2498 16.3785,11.7048 16.3785,13.4998 C16.3785,15.2948 17.8335,16.7498 19.6285,16.7498 C21.4235,16.7498 22.8785,15.2948 22.8785,13.4998 C22.8785,11.7048 21.4235,10.2498 19.6285,10.2498" id="Fill-5"></path>
                        <path d="M17.2047,10.0174 L16.0237,9.0384 C15.7307,10.0434 15.0887,10.8954 14.2237,11.4434 L15.5077,12.5074 C15.7547,11.4844 16.3657,10.6034 17.2047,10.0174" id="Fill-7"></path>
                        <path d="M8.066,9.5506 L4.916,12.8416 C5.866,13.2476 6.627,13.9976 7.073,14.9256 L10.164,11.6976 C9.231,11.2586 8.479,10.4986 8.066,9.5506" id="Fill-9"></path>
                        <path d="M21.4894,9.6975 C22.4134,10.1525 23.1564,10.9205 23.5534,11.8765 L27.4954,7.9575 C26.5404,7.5585 25.7744,6.8145 25.3214,5.8885 L21.4894,9.6975 Z" id="Fill-11"></path>
                        <path d="M29.1285,0.7864 C27.3335,0.7864 25.8785,2.2414 25.8785,4.0364 C25.8785,5.8314 27.3335,7.2864 29.1285,7.2864 C30.9235,7.2864 32.3785,5.8314 32.3785,4.0364 C32.3785,2.2414 30.9235,0.7864 29.1285,0.7864" id="Fill-13"></path>
                    </g>
                </g>
            </g>
        </g>
    </g>
</svg>