<?xml version="1.0" encoding="UTF-8"?>
<svg width="27px" height="21px" viewBox="0 0 27 21" version="1.1" xmlns="http://www.w3.org/2000/svg" xmlns:xlink="http://www.w3.org/1999/xlink">
    <!-- Generator: Sketch 47.1 (45422) - http://www.bohemiancoding.com/sketch -->
    <title>role_specific_function_icon</title>
    <desc>Created with Sketch.</desc>
    <defs></defs>
    <g id="Page-1" stroke="none" stroke-width="1" fill="none" fill-rule="evenodd">
        <g id="Graphic_Assets" transform="translate(-191.000000, -330.000000)" fill="#FFFFFF">
            <g id="navigation" transform="translate(127.000000, 251.000000)">
                <g id="role_specific_function_icon" transform="translate(64.039059, 79.000000)">
                    <path d="M15.4191743,20.0631776 C15.4516199,20.1595872 15.4525469,20.2634129 15.4210283,20.3607495 C15.3579913,20.5554228 15.1753693,20.6879859 14.9704989,20.6879859 L2.74687425,20.6879859 C1.56863772,20.6879859 0.60546875,19.72389 0.60546875,18.5456534 L0.60546875,8.49217178 C0.60546875,8.22982643 0.816828254,8.01753991 1.0791736,8.01753991 L2.74594723,8.01753991 L2.74594723,15.5263644 C2.74594723,17.0679909 4.00668813,18.3278048 5.54831469,18.3278048 L14.3076829,18.3278048 C14.3354934,18.3648854 14.3679389,18.398258 14.4059465,18.4260685 L15.2050338,19.6960795 C15.2875381,19.7554085 15.3477941,19.8406939 15.3783856,19.9380305 C15.3913639,19.9797462 15.4052691,20.0214619 15.4191743,20.0631776 L15.4191743,20.0631776 Z M2.74594723,6.50001576 L0.60546875,6.50001576 L0.60546875,6.12735558 C0.60546875,5.20961036 1.35542418,4.45872792 2.2731694,4.45872792 L2.74594723,4.45872792 L2.74594723,6.50001576 Z M4.25883631,14.7495255 L4.25883631,4.69604385 C4.25883631,4.4336985 4.47112283,4.222339 4.73254116,4.222339 L26.0872672,4.222339 C26.3496125,4.222339 26.561899,4.4336985 26.561899,4.69604385 L26.561899,9.51837779 C26.561899,9.77979612 26.3496125,9.99208264 26.0872672,9.99208264 L24.3231569,9.99208264 C24.2211852,9.99208264 24.1219946,9.95963711 24.0404172,9.89845409 C24.0061177,9.87249766 23.9708911,9.84654123 23.9356645,9.82151182 C23.8531601,9.76310985 23.7910501,9.67875145 23.7595316,9.58234185 L23.0911535,7.52436774 C23.0383136,7.36121303 22.9011153,7.23977402 22.7333256,7.20640147 L22.1335466,7.08588947 C21.6487176,6.98855285 21.1499833,6.93942104 20.6531031,6.93942104 C20.1562228,6.93942104 19.6584156,6.98855285 19.1726595,7.08588947 L18.5738076,7.20640147 C18.4060178,7.23977402 18.2688196,7.36121303 18.2159797,7.52436774 L17.5466746,9.58234185 C17.5160831,9.67875145 17.453973,9.76310985 17.3705417,9.82151182 C17.3353151,9.84654123 17.3010155,9.87249766 17.2657889,9.89845409 C17.1842116,9.95963711 17.0850209,9.99208264 16.9830492,9.99208264 L14.8212494,9.99208264 C14.6497516,9.99208264 14.4921589,10.0838572 14.4087276,10.2331066 L14.1083746,10.7642864 C13.6152024,11.639389 13.3065063,12.5886527 13.1924834,13.5870482 L13.1220302,14.1923893 C13.1025629,14.3629601 13.1767241,14.5298229 13.3148494,14.6299405 L15.0632004,15.8999516 C15.1447778,15.9602076 15.2059608,16.044566 15.2365523,16.1419026 C15.2495305,16.1836183 15.2634357,16.225334 15.277341,16.2670497 C15.3088595,16.3634593 15.3097865,16.467285 15.278268,16.5646216 C15.2152309,16.7592948 15.0326089,16.891858 14.8277385,16.891858 L6.40024181,16.891858 C5.22200528,16.891858 4.25883631,15.927762 4.25883631,14.7495255 L4.25883631,14.7495255 Z M26.561899,2.70296081 L4.25883631,2.70296081 L4.25883631,2.33122765 C4.25883631,1.41348244 5.00971876,0.662599989 5.92653696,0.662599989 L24.8932714,0.662599989 C25.8110166,0.662599989 26.561899,1.41348244 26.561899,2.33122765 L26.561899,2.70296081 Z M21.8888146,14.4510266 C21.8888146,15.1314558 21.3344594,15.685811 20.6531031,15.685811 C19.9726738,15.685811 19.4183186,15.1314558 19.4183186,14.4510266 C19.4183186,13.7696703 19.9726738,13.2162421 20.6531031,13.2162421 C21.3344594,13.2162421 21.8888146,13.7696703 21.8888146,14.4510266 L21.8888146,14.4510266 Z M20.6531031,16.9891946 C19.2514558,16.9891946 18.114935,15.8526738 18.114935,14.4510266 C18.114935,13.0493793 19.2514558,11.9128585 20.6531031,11.9128585 C22.0556773,11.9128585 23.1912712,13.0493793 23.1912712,14.4510266 C23.1912712,15.8526738 22.0556773,16.9891946 20.6531031,16.9891946 L20.6531031,16.9891946 Z M24.7579271,15.1027184 L26.6054688,13.7604001 C26.5127672,12.9501887 26.258765,12.1891091 25.8759077,11.5105338 L23.5898878,11.5105338 C23.2839727,11.2046187 22.9307798,10.9469085 22.5423604,10.7485272 L21.8359747,8.57467615 C21.4531173,8.49866089 21.0582088,8.45787221 20.6531031,8.45787221 C20.2479974,8.45787221 19.8530888,8.49866089 19.4711585,8.57467615 L18.7647728,10.7485272 C18.3763533,10.9469085 18.0231605,11.2046187 17.7172454,11.5105338 L15.4312255,11.5105338 C15.0483682,12.1891091 14.7934389,12.9501887 14.7007374,13.7604001 L16.549206,15.1027184 C16.6178052,15.5402696 16.7550035,15.9546455 16.9487497,16.3356488 L16.243291,18.5076458 C16.7791059,19.0898115 17.4280166,19.5653703 18.1566507,19.8990959 L20.0051193,18.5558506 C20.2164788,18.5892232 20.4334004,18.6059094 20.6531031,18.6059094 C20.8737327,18.6059094 21.0906543,18.5892232 21.3010868,18.5558506 L23.1504825,19.8990959 C23.8781895,19.5653703 24.5280273,19.0898115 25.0629152,18.5076458 L24.3574565,16.3356488 C24.5521297,15.9546455 24.689328,15.5402696 24.7579271,15.1027184 L24.7579271,15.1027184 Z" id="Fill-1"></path>
                </g>
            </g>
        </g>
    </g>
</svg>