<?xml version="1.0" encoding="UTF-8"?>
<svg width="72px" height="62px" viewBox="0 0 72 62" version="1.1" xmlns="http://www.w3.org/2000/svg" xmlns:xlink="http://www.w3.org/1999/xlink">
    <!-- Generator: Sketch 47.1 (45422) - http://www.bohemiancoding.com/sketch -->
    <title>failure_icon</title>
    <desc>Created with Sketch.</desc>
    <defs></defs>
    <g id="Page-1" stroke="none" stroke-width="1" fill="none" fill-rule="evenodd">
        <g id="Graphic_Assets" transform="translate(-988.000000, -156.000000)">
            <g id="alerts_&amp;_info_icons" transform="translate(987.000000, 111.000000)">
                <g id="sad_face" transform="translate(1.000000, 43.300882)">
                    <g id="Group">
                        <g id="Page-1" transform="translate(0.500000, 0.551578)">
                            <g id="Group-3" transform="translate(0.000000, 0.891513)" fill="#938C8E">
                                <g id="sad_face">
                                    <path d="M53.3199324,61.2413005 C53.3717991,61.3954184 53.373281,61.5613917 53.3228962,61.7155096 C53.2206449,62.0281913 52.9301917,62.2401035 52.602691,62.2401035 L3.42423488,62.2401035 C1.54073528,62.2401035 -0.00044457111,60.6989237 -0.00044457111,58.8154241 L-0.00044457111,42.7441785 C-0.00044457111,42.3247997 0.338911376,41.9854438 0.758290123,41.9854438 L3.42275297,41.9854438 L3.42275297,53.9888638 C3.42275297,56.4532696 5.438142,58.4671767 7.90254786,58.4671767 L51.5431299,58.4671767 C51.587587,58.5264529 51.6394536,58.5798014 51.7002117,58.6242585 L52.9776127,60.6544666 C53.1095021,60.7493084 53.2058258,60.8856436 53.2547287,61.0412435 C53.2754753,61.1079291 53.2977039,61.1746148 53.3199324,61.2413005 L53.3199324,61.2413005 Z M3.42275297,39.5595674 L-0.00044457111,39.5595674 L-0.00044457111,38.9638421 C-0.00044457111,37.4967575 1.19989743,36.2964155 2.66698209,36.2964155 L3.42275297,36.2964155 L3.42275297,39.5595674 Z M5.84121981,52.7470285 L5.84121981,7.03770886 C5.84121981,6.61833011 6.18057576,6.28045607 6.5984726,6.28045607 L70.3736802,6.28045607 C70.7930589,6.28045607 71.1324149,6.61833011 71.1324149,7.03770886 L71.1324149,44.3846459 C71.1324149,44.8025427 70.7930589,45.1418987 70.3736802,45.1418987 L67.5536175,45.1418987 C67.390608,45.1418987 67.2320443,45.090032 67.1016368,44.9922264 C67.0468064,44.9507331 66.990494,44.9092398 66.9341817,44.8692284 C66.8022923,44.7758685 66.7030047,44.6410152 66.65262,44.4868972 L65.5841674,41.197071 C65.4996989,40.936256 65.2803772,40.7421266 65.0121526,40.6872961 L64.0533609,40.4961306 C63.2768434,40.3405307 62.4810611,40.2619898 61.6867607,40.2619898 C60.8924603,40.2619898 60.096678,40.3405307 59.3201605,40.4961306 L58.3628507,40.6872961 C58.0931442,40.7421266 57.8753044,40.936256 57.7908359,41.197071 L56.7209014,44.4868972 C56.6705167,44.6410152 56.572711,44.7758685 56.4393397,44.8692284 C56.3830274,44.9092398 56.3281969,44.9507331 56.2718846,44.9922264 C56.1414771,45.090032 55.9829134,45.1418987 55.819904,45.1418987 L52.3626226,45.1418987 C52.0899524,45.1418987 51.8380287,45.2886071 51.7031755,45.5271936 L51.2245206,46.3763244 C50.4361478,47.7752415 49.9426739,49.2927109 49.7603997,50.8887212 L49.6477751,51.8564043 C49.6166551,52.1290746 49.7352074,52.3958173 49.956011,52.5558629 L52.7493995,54.5860709 C52.8812889,54.6823947 52.9790946,54.8172479 53.0279974,54.9728478 C53.0472621,55.0395335 53.0694907,55.1062191 53.0917193,55.1729048 C53.1435859,55.3270228 53.1450678,55.492996 53.0946831,55.6485959 C52.9939136,55.9597957 52.7019786,56.1717079 52.3744779,56.1717079 L9.26441735,56.1717079 C7.38091775,56.1717079 5.84121981,54.6305281 5.84121981,52.7470285 L5.84121981,52.7470285 Z M71.1324149,3.8516159 L5.84121981,3.8516159 L5.84121981,3.25737252 C5.84121981,1.79028786 7.04156181,0.589945863 8.50716456,0.589945863 L68.4649882,0.589945863 C69.9320729,0.589945863 71.1324149,1.79028786 71.1324149,3.25737252 L71.1324149,3.8516159 Z M63.6606564,52.2683736 C63.6606564,53.3575728 62.7759599,54.2422693 61.6867607,54.2422693 C60.5990434,54.2422693 59.712865,53.3575728 59.712865,52.2683736 C59.712865,51.1806562 60.5990434,50.2944778 61.6867607,50.2944778 C62.7759599,50.2944778 63.6606564,51.1806562 63.6606564,52.2683736 L63.6606564,52.2683736 Z M61.6867607,56.3273078 C59.4461223,56.3273078 57.6293084,54.5104939 57.6293084,52.2683736 C57.6293084,50.0292171 59.4461223,48.2124031 61.6867607,48.2124031 C63.9273991,48.2124031 65.744213,50.0292171 65.744213,52.2683736 C65.744213,54.5104939 63.9273991,56.3273078 61.6867607,56.3273078 L61.6867607,56.3273078 Z M68.2486303,53.3116338 L71.2020644,51.1658372 C71.053874,49.8706534 70.6478324,48.6540104 70.0358061,47.5692569 L66.3814316,47.5692569 C65.8924034,47.0802287 65.3277981,46.6682595 64.7053985,46.3511321 L63.5776698,42.8760679 C62.9656436,42.7545518 62.3343526,42.689348 61.6867607,42.689348 C61.0391688,42.689348 60.4078778,42.7545518 59.7973335,42.8760679 L58.6681229,46.3511321 C58.0457233,46.6682595 57.4825999,47.0802287 56.9935717,47.5692569 L53.3391972,47.5692569 C52.7271709,48.6540104 52.3196474,49.8706534 52.1714571,51.1658372 L55.126373,53.3116338 C55.2360339,54.0110923 55.4553557,54.6735033 55.7650735,55.2825657 L54.6373448,58.754666 C55.4938851,59.6853016 56.5312177,60.4455182 57.6945121,60.9790035 L60.65091,58.831725 C60.9887841,58.8850736 61.3340676,58.9117478 61.6867607,58.9117478 C62.0394538,58.9117478 62.3847373,58.8850736 62.7226114,58.831725 L65.6790093,60.9790035 C66.8423037,60.4455182 67.8796363,59.6853016 68.7361766,58.754666 L67.6084479,55.2825657 C67.9196477,54.6735033 68.1389694,54.0110923 68.2486303,53.3116338 L68.2486303,53.3116338 Z" id="Fill-1"></path>
                                </g>
                            </g>
                            <path d="M28.7810891,40.0460764 C34.1500262,33.4323402 43.1022064,32.9655405 48.9690632,39.2414027 C50.9266579,41.3353326 54.06533,38.1862873 52.1121809,36.0968031 C44.7100719,28.1789916 32.5080769,28.4383247 25.6364894,36.9029587 C23.8493136,39.1050676 26.9761304,42.268932 28.7810891,40.0460764" id="Fill-4" fill="#FFFFFF"></path>
                            <path d="M27.024144,22.3038362 L30.3584274,22.3038362 C31.5202399,22.3038362 32.6346314,21.2813226 32.5812829,20.0809806 C32.5264525,18.8761929 31.6047084,17.8581251 30.3584274,17.8581251 L27.024144,17.8581251 C25.8608496,17.8581251 24.7464581,18.8806386 24.8012885,20.0809806 C24.854637,21.2857684 25.777863,22.3038362 27.024144,22.3038362" id="Fill-6" fill="#FFFFFF"></path>
                            <path d="M47.7707958,22.3038362 L51.1050792,22.3038362 C52.2668917,22.3038362 53.3812832,21.2813226 53.3279347,20.0809806 C53.2731043,18.8761929 52.3513602,17.8581251 51.1050792,17.8581251 L47.7707958,17.8581251 C46.6075014,17.8581251 45.4931098,18.8806386 45.5479403,20.0809806 C45.6012888,21.2857684 46.5245148,22.3038362 47.7707958,22.3038362" id="Fill-8" fill="#FFFFFF"></path>
                        </g>
                    </g>
                </g>
            </g>
        </g>
    </g>
</svg>