<?xml version="1.0" encoding="UTF-8"?>
<svg width="82px" height="62px" viewBox="0 0 82 62" version="1.1" xmlns="http://www.w3.org/2000/svg" xmlns:xlink="http://www.w3.org/1999/xlink">
    <!-- Generator: Sketch 47.1 (45422) - http://www.bohemiancoding.com/sketch -->
    <title>select_leftpane</title>
    <desc>Created with Sketch.</desc>
    <defs>
        <polygon id="path-1" points="82 55 82 2.52453449e-14 1.64675922e-20 1.66533454e-14 0 55"></polygon>
        <polygon id="path-3" points="32 4 -7.01771974e-13 4 -6.97481905e-13 -1.66955344e-14 32 -1.66955344e-14 32 4"></polygon>
    </defs>
    <g id="Page-1" stroke="none" stroke-width="1" fill="none" fill-rule="evenodd">
        <g id="Graphic_Assets" transform="translate(-1106.000000, -158.000000)">
            <g id="alerts_&amp;_info_icons" transform="translate(987.000000, 111.000000)">
                <g id="select_leftpane" transform="translate(119.000000, 47.000000)">
                    <g id="Group">
                        <g id="Page-1">
                            <g id="Group-3" transform="translate(0.000000, -0.000000)">
                                <mask id="mask-2" fill="white">
                                    <use xlink:href="#path-1"></use>
                                </mask>
                                <g id="Clip-2"></g>
                                <path d="M77.946692,52 L4,51.919389 L4.05330801,3 L78,3.08061105 L77.946692,52 Z M78.8444247,1.66533454e-14 L3.15557531,1.66533454e-14 C1.42043417,1.66533454e-14 2.13604823e-13,1.4129694 2.13604823e-13,3.14033506 L2.13604823e-13,51.8602695 C2.13604823e-13,53.5876352 1.42043417,55 3.15557531,55 L78.8444247,55 C80.5795658,55 82,53.5876352 82,51.8602695 L82,3.14033506 C82,1.4129694 80.5795658,1.66533454e-14 78.8444247,1.66533454e-14 L78.8444247,1.66533454e-14 Z" id="Fill-1" fill="#00B0F5" mask="url(#mask-2)"></path>
                            </g>
                            <path d="M27.9833729,46 L13.0160333,46 C13.0071259,46 13,45.9920368 13,45.9828484 L13,10.0171516 C13,10.0079632 13.0071259,10 13.0160333,10 L27.9833729,10 C27.9928741,10 28,10.0079632 28,10.0171516 L28,45.9828484 C28,45.9920368 27.9928741,46 27.9833729,46" id="Fill-4" fill="#34545E"></path>
                            <path d="M31.9831937,26 L10.016206,26 C10.0072027,26 10,25.9928001 10,25.9832003 L10,16.0167997 C10,16.0077998 10.0072027,16 10.016206,16 L31.9831937,16 C31.9927973,16 32,16.0077998 32,16.0167997 L32,25.9832003 C32,25.9928001 31.9927973,26 31.9831937,26" id="Fill-6" fill="#00B0F5"></path>
                            <path d="M28.9252111,27.5637777 C28.8534379,27.5637777 28.7840772,27.5717381 28.7159228,27.585822 C28.5603136,27.1780028 28.1712907,26.8859162 27.7165259,26.8859162 C27.437877,26.8859162 27.185766,26.9973622 26.9939686,27.1755535 C26.8600724,26.7279322 26.4535585,26.397268 25.9704463,26.397268 C25.7153197,26.397268 25.4831122,26.4921809 25.2985525,26.6446538 L25.2985525,23.8682996 C25.2985525,23.3906736 24.8148372,23 24.2243667,23 C23.6332931,23 23.1495778,23.3906736 23.1495778,23.8682996 L23.1495778,30.3180876 C23.1489747,30.3180876 23.1483715,30.3180876 23.1477684,30.3180876 C23.1393245,29.846585 22.6604343,29.4626472 22.0747889,29.4626472 C21.4837153,29.4626472 21,29.8533208 21,30.3309468 L21,31.3070184 L21,32.2298163 L21,32.7447951 C21,34.5352803 22.8136309,36 25.0301568,36 L25.9704463,36 C28.1863691,36 30,34.5352803 30,32.7447951 L30,32.3859633 L30,31.3070184 L30,28.6549694 C30,28.0548752 29.5162847,27.5637777 28.9252111,27.5637777" id="Fill-8" fill="#FFFFFF"></path>
                            <path d="M28.9252111,27.5637777 C28.8534379,27.5637777 28.7840772,27.5717381 28.7159228,27.585822 C28.5603136,27.1780028 28.1712907,26.8859162 27.7165259,26.8859162 C27.437877,26.8859162 27.185766,26.9973622 26.9939686,27.1755535 C26.8600724,26.7279322 26.4535585,26.397268 25.9704463,26.397268 C25.7153197,26.397268 25.4831122,26.4921809 25.2985525,26.6446538 L25.2985525,23.8682996 C25.2985525,23.3906736 24.8148372,23 24.2243667,23 C23.6332931,23 23.1495778,23.3906736 23.1495778,23.8682996 L23.1495778,30.3180876 C23.1489747,30.3180876 23.1483715,30.3180876 23.1477684,30.3180876 C23.1393245,29.846585 22.6604343,29.4626472 22.0747889,29.4626472 C21.4837153,29.4626472 21,29.8533208 21,30.3309468 L21,31.3070184 L21,32.2298163 L21,32.7447951 C21,34.5352803 22.8136309,36 25.0301568,36 L25.9704463,36 C28.1863691,36 30,34.5352803 30,32.7447951 L30,32.3859633 L30,31.3070184 L30,28.6549694 C30,28.0548752 29.5162847,27.5637777 28.9252111,27.5637777 Z" id="Stroke-10" stroke="#203135"></path>
                            <g id="Group-14" transform="translate(24.000000, 58.000000)">
                                <mask id="mask-4" fill="white">
                                    <use xlink:href="#path-3"></use>
                                </mask>
                                <g id="Clip-13"></g>
                                <path d="M30.1886792,4 L1.81132075,4 C0.81509434,4 -6.97386593e-13,3.1 -6.97386593e-13,2 C-6.97386593e-13,0.9 0.81509434,-1.66955344e-14 1.81132075,-1.66955344e-14 L30.1886792,-1.66955344e-14 C31.1849057,-1.66955344e-14 32,0.9 32,2 C32,3.1 31.1849057,4 30.1886792,4" id="Fill-12" fill="#00B0F5" mask="url(#mask-4)"></path>
                            </g>
                        </g>
                    </g>
                </g>
            </g>
        </g>
    </g>
</svg>