<?xml version="1.0" encoding="UTF-8"?>
<svg width="18px" height="14px" viewBox="0 0 18 14" version="1.1" xmlns="http://www.w3.org/2000/svg" xmlns:xlink="http://www.w3.org/1999/xlink">
    <!-- Generator: Sketch 47.1 (45422) - http://www.bohemiancoding.com/sketch -->
    <title>filter_icon</title>
    <desc>Created with Sketch.</desc>
    <defs>
        <polygon id="path-1" points="11 14 7 14 7 10 11 10"></polygon>
    </defs>
    <g id="Page-1" stroke="none" stroke-width="1" fill="none" fill-rule="evenodd">
        <g id="Graphic_Assets" transform="translate(-128.000000, -479.000000)">
            <g id="left_panel" transform="translate(127.000000, 421.000000)">
                <g id="filter_icon" transform="translate(1.000000, 58.000000)">
                    <path d="M9,2 C9,0.895424837 8.10481895,0 7.00054451,0 C5.89518105,0 5,0.895424837 5,2 C5,3.10457516 5.89518105,4 7.00054451,4 C8.10481895,4 9,3.10457516 9,2" id="Fill-1" fill="#F78100" fill-rule="evenodd"></path>
                    <path d="M11,12 C11,10.8954248 10.1048189,10 9.00054451,10 C7.89518105,10 7,10.8954248 7,12 C7,13.1045752 7.89518105,14 9.00054451,14 C10.1048189,14 11,13.1045752 11,12" id="Fill-1" fill="#F78100" fill-rule="evenodd"></path>
                    <path d="M13,5 C11.8954248,5 11,5.89518105 11,6.99945549 C11,8.10481895 11.8954248,9 13,9 C14.1045752,9 15,8.10481895 15,6.99945549 C15,5.89518105 14.1045752,5 13,5" id="Fill-3" fill="#F78100" fill-rule="evenodd"></path>
                    <path d="M10.1501638,2 C10.1501638,2.348 10.0876795,2.679 10,3 L16.9921895,3 C17.5485009,3 18,2.552 18,2 C18,1.448 17.5485009,1 16.9921895,1 L10,1 C10.0876795,1.321 10.1501638,1.652 10.1501638,2" id="Fill-5" fill="#F78100" fill-rule="evenodd"></path>
                    <path d="M1.0348396,8 L9,8 C8.90479476,7.68 8.83649534,7.35 8.83649534,7 C8.83649534,6.652 8.89962056,6.321 8.9896516,6 L1.0348396,6 C0.463608141,6 0,6.448 0,7 C0,7.552 0.463608141,8 1.0348396,8" id="Fill-8" fill="#F78100" fill-rule="evenodd"></path>
                    <path d="M1.11648679,3 L3,3 C2.90286565,2.679 2.83475996,2.348 2.83475996,2 C2.83475996,1.652 2.90286565,1.321 3,1 L1.11648679,1 C0.500186081,1 0,1.448 0,2 C0,2.552 0.500186081,3 1.11648679,3" id="Fill-10" fill="#F78100" fill-rule="evenodd"></path>
                    <path d="M16.9674755,6 L16,6 C16.0898296,6.321 16.1528136,6.652 16.1528136,7 C16.1528136,7.348 16.0898296,7.679 16,8 L16.9674755,8 C17.537429,8 18,7.552 18,7 C18,6.448 17.537429,6 16.9674755,6" id="Fill-12" fill="#F78100" fill-rule="evenodd"></path>
                    <path d="M16.9910879,11 L12,11 C12.0958466,11.333 12.1634438,11.676 12.1594081,12.039 C12.1563814,12.373 12.0948377,12.691 12.0100891,13 L16.9910879,13 C17.5480074,13 18,12.552 18,12 C18,11.448 17.5480074,11 16.9910879,11" id="Fill-14" fill="#F78100" fill-rule="evenodd"></path>
                    <path d="M4.84005118,11.961 C4.84325016,11.627 4.90829601,11.309 4.99786735,11 L1.06632544,11 C0.477713798,11 0,11.448 0,12 C0,12.552 0.477713798,13 1.06632544,13 L5,13 C4.90403071,12.667 4.83685221,12.323 4.84005118,11.961" id="Fill-16" fill="#F78100" fill-rule="evenodd"></path>
                    <mask id="mask-2" fill="white">
                        <use xlink:href="#path-1"></use>
                    </mask>
                    <g id="Clip-20"></g>
                </g>
            </g>
        </g>
    </g>
</svg>