<?xml version="1.0" encoding="UTF-8"?>
<svg width="17px" height="18px" viewBox="0 0 17 18" version="1.1" xmlns="http://www.w3.org/2000/svg" xmlns:xlink="http://www.w3.org/1999/xlink">
    <!-- Generator: Sketch 47.1 (45422) - http://www.bohemiancoding.com/sketch -->
    <title>roles_region_icon</title>
    <desc>Created with Sketch.</desc>
    <defs></defs>
    <g id="Page-1" stroke="none" stroke-width="1" fill="none" fill-rule="evenodd" opacity="0.458446558">
        <g id="Graphic_Assets" transform="translate(-227.000000, -524.000000)" fill="#9DB4BE">
            <g id="left_panel" transform="translate(127.000000, 421.000000)">
                <g id="roles_region_icon" transform="translate(100.000000, 103.000000)">
                    <path d="M5.83284712,16.3385957 C4.70128897,16.2250456 3.63991108,15.8836068 2.69129474,15.3576491 C0.718362001,14.3349098 0,12.9778286 0,12.9778286 C3.23696599,8.43976784 8.6574055,9.57448015 8.6574055,9.57448015 C6.7412478,13.0330265 9.38286438,16.3882738 9.38286438,16.3882738 C8.02736023,16.522326 6.85085518,16.4860531 5.83284712,16.3385957 Z M6.65371961,0 C9.03827141,0 10.9725656,1.93429417 10.9725656,4.31963451 C10.9725656,4.95993083 10.8329936,5.56789692 10.5822372,6.11514525 L10.5570038,6.1703432 C9.86308662,7.62914639 8.37668445,8.63848049 6.65371961,8.63848049 C4.26837927,8.63848049 2.33487364,6.70497486 2.33487364,4.31963451 C2.33487364,1.93429417 4.26837927,0 6.65371961,0 Z M10.765179,12.0276351 C10.765179,10.7683331 11.7863412,9.74717091 13.0464317,9.74717091 C14.3057337,9.74717091 15.3276845,10.7683331 15.3276845,12.0276351 C15.3276845,13.2877257 14.3057337,14.3088879 13.0464317,14.3088879 C11.7863412,14.3088879 10.765179,13.2877257 10.765179,12.0276351 Z M9.38286438,11.9117194 C9.38286438,15.9119943 13.0464317,17.9480104 13.0464317,17.9480104 C13.0464317,17.9480104 16.7099991,15.9119943 16.7099991,11.9117194 C16.7099991,9.88831997 15.0690426,8.24894061 13.0464317,8.24894061 C11.0230323,8.24894061 9.38286438,9.88831997 9.38286438,11.9117194 Z" id="Fill-1"></path>
                </g>
            </g>
        </g>
    </g>
</svg>