<?xml version="1.0" encoding="UTF-8"?>
<svg width="11px" height="11px" viewBox="0 0 11 11" version="1.1" xmlns="http://www.w3.org/2000/svg" xmlns:xlink="http://www.w3.org/1999/xlink">
    <!-- Generator: Sketch 47.1 (45422) - http://www.bohemiancoding.com/sketch -->
    <title>add_btn_icon</title>
    <desc>Created with Sketch.</desc>
    <defs></defs>
    <g id="Page-1" stroke="none" stroke-width="1" fill="none" fill-rule="evenodd">
        <g id="Graphic_Assets" transform="translate(-547.000000, -159.000000)" fill="#FFFFFF">
            <g id="buttons" transform="translate(547.000000, 111.000000)">
                <g id="add_btn_icon" transform="translate(0.000000, 48.000000)">
                    <path d="M6.55077789,4.59971014 L6.55077789,1.59971014 C6.55077789,1.04742539 6.10306264,0.599710142 5.55077789,0.599710142 C4.99849315,0.599710142 4.55077789,1.04742539 4.55077789,1.59971014 L4.55077789,4.59971014 L1.55077789,4.59971014 C0.998493145,4.59971014 0.550777895,5.04742539 0.550777895,5.59971014 C0.550777895,6.15199489 0.998493145,6.59971014 1.55077789,6.59971014 L4.55077789,6.59971014 L4.55077789,9.59971014 C4.55077789,10.1519949 4.99849315,10.5997101 5.55077789,10.5997101 C6.10306264,10.5997101 6.55077789,10.1519949 6.55077789,9.59971014 L6.55077789,6.59971014 L9.55077789,6.59971014 C10.1030626,6.59971014 10.5507779,6.15199489 10.5507779,5.59971014 C10.5507779,5.04742539 10.1030626,4.59971014 9.55077789,4.59971014 L6.55077789,4.59971014 Z" id="Combined-Shape"></path>
                </g>
            </g>
        </g>
    </g>
</svg>