<?xml version="1.0" encoding="UTF-8"?>
<svg width="11px" height="11px" viewBox="0 0 11 11" version="1.1" xmlns="http://www.w3.org/2000/svg" xmlns:xlink="http://www.w3.org/1999/xlink">
    <!-- Generator: Sketch 47.1 (45422) - http://www.bohemiancoding.com/sketch -->
    <title>spread_btn_icon</title>
    <desc>Created with Sketch.</desc>
    <defs></defs>
    <g id="Page-1" stroke="none" stroke-width="1" fill="none" fill-rule="evenodd">
        <g id="Graphic_Assets" transform="translate(-588.000000, -160.000000)" fill="#FFFFFF">
            <g id="buttons" transform="translate(547.000000, 111.000000)">
                <g id="spread_btn_icon" transform="translate(41.000000, 49.000000)">
                    <path d="M8,0 L8,3 L3,3 L3,8 L1.54454227e-12,8 L1.54454227e-12,11 L3,11 L3,8 L8,8 L8,11 L11,11 L11,8 L8,8 L8,3 L11,3 L11,0 L8,0 Z M4,7 L7,7 L7,4 L4,4 L4,7 Z M0,3 L3,3 L3,0 L0,0 L0,3 Z" id="Page-1"></path>
                </g>
            </g>
        </g>
    </g>
</svg>