<?xml version="1.0" encoding="UTF-8"?>
<svg width="45px" height="39px" viewBox="0 0 45 39" version="1.1" xmlns="http://www.w3.org/2000/svg" xmlns:xlink="http://www.w3.org/1999/xlink">
    <!-- Generator: Sketch 47.1 (45422) - http://www.bohemiancoding.com/sketch -->
    <title>applications_icon</title>
    <desc>Created with Sketch.</desc>
    <defs>
        <polygon id="path-1" points="4.04183686e-20 0.736043783 4.04183686e-20 4.01811908 3.44431509 4.01811908 3.44431509 0.736043783"></polygon>
    </defs>
    <g id="Page-1" stroke="none" stroke-width="1" fill="none" fill-rule="evenodd">
        <g id="Graphic_Assets" transform="translate(-234.000000, -855.000000)">
            <g id="Cards" transform="translate(127.000000, 811.000000)">
                <g id="applications_icon" transform="translate(107.000000, 44.000000)">
                    <g id="Page-1">
                        <path d="M42.0524658,0 L8.56068427,0 C7.08442141,0 5.87806116,1.20785143 5.87806116,2.68262311 L5.87806116,3.2820753 L44.7350889,3.2820753 L44.7350889,2.68262311 C44.7350889,1.20785143 43.5287287,0 42.0524658,0" id="Fill-1" fill="#FFFFFF"></path>
                        <g id="Group-5" transform="translate(0.000000, 12.826487)">
                            <mask id="mask-2" fill="white">
                                <use xlink:href="#path-1"></use>
                            </mask>
                            <g id="Clip-4"></g>
                            <path d="M3.44431509,0.736043783 L2.68381605,0.736043783 C1.20755319,0.736043783 -0.00029823492,1.94389521 -0.00029823492,3.41866689 L-0.00029823492,4.01811908 L3.44431509,4.01811908 L3.44431509,0.736043783 Z" id="Fill-3" fill="#FFFFFF" mask="url(#mask-2)"></path>
                        </g>
                        <path d="M36.9533943,34.3806707 L7.95153944,34.3806707 C5.47171608,34.3806707 3.44371862,32.3526733 3.44371862,29.8743411 L3.44371862,19.2870014 L0.762586691,19.2870014 C0.340584279,19.2870014 0.00059646984,19.6284804 0.00059646984,20.0504828 L0.00059646984,34.7310968 C0.00059646984,36.6263797 1.54992688,38.1757101 3.4452098,38.1757101 L31.3048249,38.1757101 C35.7828222,38.1757101 36.9533943,34.3806707 36.9533943,34.3806707" id="Fill-6" fill="#FFFFFF"></path>
                        <path d="M43.9732478,5.72506665 L6.6402005,5.72506665 C6.21968926,5.72506665 5.87821028,6.06654563 5.87821028,6.48705687 L5.87821028,28.6235438 C5.87821028,30.5188267 7.42754069,32.0696483 9.32282361,32.0696483 L25.8614411,32.0696483 C25.868897,32.0696483 25.8748617,32.0636836 25.8823176,32.0636836 L41.4069363,32.0636836 C43.2380987,32.0636836 44.735238,30.5650532 44.735238,28.7338907 L44.735238,20.2088455 L44.735238,16.3750356 L44.735238,6.48705687 C44.735238,6.06654563 44.3937591,5.72506665 43.9732478,5.72506665" id="Fill-8" fill="#FFFFFF"></path>
                    </g>
                </g>
            </g>
        </g>
    </g>
</svg>