<?xml version="1.0" encoding="UTF-8"?>
<svg width="24px" height="24px" viewBox="0 0 24 24" version="1.1" xmlns="http://www.w3.org/2000/svg" xmlns:xlink="http://www.w3.org/1999/xlink">
    <!-- Generator: Sketch 47.1 (45422) - http://www.bohemiancoding.com/sketch -->
    <title>addnew_icon_colored</title>
    <desc>Created with Sketch.</desc>
    <defs></defs>
    <g id="Page-1" stroke="none" stroke-width="1" fill="none" fill-rule="evenodd">
        <g id="Graphic_Assets" transform="translate(-896.000000, -527.000000)">
            <g id="actions" transform="translate(768.000000, 442.000000)">
                <g id="addnew_icon_colored" transform="translate(128.000000, 85.000000)">
                    <path d="M3,24 C1.54285714,24 0,22.4571429 0,21 L0,3 C0,1.54371429 1.54285714,0 3,0 L21,0 C22.4571429,0 24,1.54371429 24,3 L24,21 C24,22.4571429 22.4571429,24 21,24 L3,24 Z" id="Fill-1" fill="#35D9D8"></path>
                    <path d="M13,11 L13,8 C13,7.44771525 12.5522847,7 12,7 C11.4477153,7 11,7.44771525 11,8 L11,11 L8,11 C7.44771525,11 7,11.4477153 7,12 C7,12.5522847 7.44771525,13 8,13 L11,13 L11,16 C11,16.5522847 11.4477153,17 12,17 C12.5522847,17 13,16.5522847 13,16 L13,13 L16,13 C16.5522847,13 17,12.5522847 17,12 C17,11.4477153 16.5522847,11 16,11 L13,11 Z" id="Combined-Shape" fill="#FFFFFF"></path>
                </g>
            </g>
        </g>
    </g>
</svg>