<?xml version="1.0" encoding="UTF-8"?>
<svg width="24px" height="24px" viewBox="0 0 24 24" version="1.1" xmlns="http://www.w3.org/2000/svg" xmlns:xlink="http://www.w3.org/1999/xlink">
    <!-- Generator: Sketch 47.1 (45422) - http://www.bohemiancoding.com/sketch -->
    <title>addnew_icon</title>
    <desc>Created with Sketch.</desc>
    <defs></defs>
    <g id="Page-1" stroke="none" stroke-width="1" fill="none" fill-rule="evenodd">
        <g id="Graphic_Assets" transform="translate(-896.000000, -487.000000)">
            <g id="actions" transform="translate(768.000000, 442.000000)">
                <g id="addnew_icon" transform="translate(128.000000, 45.000000)">
                    <path d="M3,23.5 L21,23.5 C22.1810005,23.5 23.5,22.1810005 23.5,21 L23.5,3 C23.5,1.81955253 22.1806964,0.5 21,0.5 L3,0.5 C1.8193036,0.5 0.5,1.81955253 0.5,3 L0.5,21 C0.5,22.1810005 1.81899952,23.5 3,23.5 Z" id="Fill-1" stroke="#9DB4BE" stroke-width="1"></path>
                    <path d="M13,11 L13,8 C13,7.44771525 12.5522847,7 12,7 C11.4477153,7 11,7.44771525 11,8 L11,11 L8,11 C7.44771525,11 7,11.4477153 7,12 C7,12.5522847 7.44771525,13 8,13 L11,13 L11,16 C11,16.5522847 11.4477153,17 12,17 C12.5522847,17 13,16.5522847 13,16 L13,13 L16,13 C16.5522847,13 17,12.5522847 17,12 C17,11.4477153 16.5522847,11 16,11 L13,11 Z" id="Combined-Shape" fill="#A1B8C1" fill-rule="evenodd"></path>
                </g>
            </g>
        </g>
    </g>
</svg>