<?xml version="1.0" encoding="UTF-8"?>
<svg width="14px" height="15px" viewBox="0 0 14 15" version="1.1" xmlns="http://www.w3.org/2000/svg" xmlns:xlink="http://www.w3.org/1999/xlink">
    <!-- Generator: Sketch 47.1 (45422) - http://www.bohemiancoding.com/sketch -->
    <title>date_icon</title>
    <desc>Created with Sketch.</desc>
    <defs></defs>
    <g id="Page-1" stroke="none" stroke-width="1" fill="none" fill-rule="evenodd">
        <g id="Graphic_Assets" transform="translate(-676.000000, -374.000000)" fill="#A8C5D1">
            <g id="forms_and_tables" transform="translate(547.000000, 221.000000)">
                <g id="date_icon" transform="translate(129.000000, 153.000000)">
                    <path d="M2,13 L12,13 L12,5 L2,5 L2,13 Z M12,0 L10,0 L10,2 L4,2 L4,0 L2,0 L2,2 C-2.27373675e-13,2 -2.27373675e-13,3.175 -2.27373675e-13,4 L0,14 C0,14.325 0.7,15 2,15 L12,15 C13.3,15 14,14.325 14,14 L14,4 C14,3.175 14,2 12,2 L12,0 Z" id="Fill-1"></path>
                    <polygon id="Fill-3" points="3.24693627 9.87653186 7 9.87653186 7 6.12346814 3.24693627 6.12346814"></polygon>
                </g>
            </g>
        </g>
    </g>
</svg>