<?xml version="1.0" encoding="UTF-8"?>
<svg width="24px" height="24px" viewBox="0 0 24 24" version="1.1" xmlns="http://www.w3.org/2000/svg" xmlns:xlink="http://www.w3.org/1999/xlink">
    <!-- Generator: Sketch 47.1 (45422) - http://www.bohemiancoding.com/sketch -->
    <title>edit_icon_colored</title>
    <desc>Created with Sketch.</desc>
    <defs></defs>
    <g id="Page-1" stroke="none" stroke-width="1" fill="none" fill-rule="evenodd">
        <g id="Graphic_Assets" transform="translate(-768.000000, -527.000000)">
            <g id="actions" transform="translate(768.000000, 442.000000)">
                <g id="edit_icon_colored" transform="translate(0.000000, 85.000000)">
                    <path d="M3,24 C1.54285714,24 0,22.4571429 0,21 L0,3 C0,1.54371429 1.54285714,0 3,0 L21,0 C22.4571429,0 24,1.54371429 24,3 L24,21 C24,22.4571429 22.4571429,24 21,24 L3,24 Z" id="Fill-1" fill="#1162BA"></path>
                    <path d="M9.889,17.1692 C9.824,16.6062 9.588,16.0602 9.158,15.6302 C8.729,15.2002 8.182,14.9642 7.619,14.8982 L7,17.7882 L9.889,17.1692 Z" id="Fill-1" fill="#FFFFFF"></path>
                    <path d="M9.9022,14.886 C10.3772,15.361 10.6792,15.937 10.8382,16.543 L17.2532,10.127 C17.9662,9.414 17.9662,8.248 17.2532,7.534 C16.5402,6.822 15.3732,6.822 14.6602,7.534 L8.2452,13.95 C8.8512,14.11 9.4272,14.411 9.9022,14.886" id="Fill-4" fill="#FFFFFF"></path>
                </g>
            </g>
        </g>
    </g>
</svg>