<?xml version="1.0" encoding="UTF-8"?>
<svg width="24px" height="24px" viewBox="0 0 24 24" version="1.1" xmlns="http://www.w3.org/2000/svg" xmlns:xlink="http://www.w3.org/1999/xlink">
    <!-- Generator: Sketch 47.1 (45422) - http://www.bohemiancoding.com/sketch -->
    <title>status_superapprove_icon</title>
    <desc>Created with Sketch.</desc>
    <defs>
        <polygon id="path-1" points="18.068335 1.77635684e-15 0.000285 1.77635684e-15 0.000285 11.5419 18.068335 11.5419 18.068335 0"></polygon>
    </defs>
    <g id="Page-1" stroke="none" stroke-width="1" fill="none" fill-rule="evenodd">
        <g id="Graphic_Assets" transform="translate(-676.000000, -489.000000)">
            <g id="status" transform="translate(549.000000, 442.000000)">
                <g id="status_superapprove_icon" transform="translate(127.000000, 47.000000)">
                    <path d="M3,24 C1.54285714,24 0,22.4571429 0,21 L0,3 C0,1.54371429 1.54285714,0 3,0 L21,0 C22.4571429,0 24,1.54371429 24,3 L24,21 C24,22.4571429 22.4571429,24 21,24 L3,24 Z" id="Fill-1" fill="#2DCF18"></path>
                    <g id="Page-1" stroke-width="1" transform="translate(3.000000, 6.788200)">
                        <mask id="mask-2" fill="white">
                            <use xlink:href="#path-1"></use>
                        </mask>
                        <g id="Clip-2"></g>
                        <path d="M14.939035,6.5079 L15.737035,5.7449 L13.809485,2.1529 L10.314435,1.7199 C10.218485,1.7149 10.124435,1.7119 10.032285,1.7119 C7.855835,1.7119 6.688285,3.1209 6.666435,3.1469 L5.709785,4.1599 C5.547335,4.3309 5.547335,4.6099 5.708835,4.7789 C5.786735,4.8609 5.890285,4.9049 6.000485,4.9049 C6.111635,4.9049 6.217085,4.8599 6.295935,4.7769 L7.252585,3.7629 C7.951785,3.0279 8.601585,2.8729 9.024335,2.8729 C9.421435,2.8729 9.671285,3.0039 9.712135,3.0279 L14.939035,6.5079 Z M7.359935,11.4869 L8.080035,10.7239 C8.179785,10.6179 8.130385,10.3799 7.974585,10.2159 C7.876735,10.1129 7.751335,10.0509 7.640185,10.0509 C7.597435,10.0509 7.536635,10.0609 7.494835,10.1059 L6.774735,10.8699 C6.685435,10.9649 6.707285,11.1959 6.880185,11.3779 C6.978035,11.4809 7.103435,11.5419 7.214585,11.5419 C7.258285,11.5419 7.318135,11.5319 7.359935,11.4869 L7.359935,11.4869 Z M5.770585,10.8589 C5.882685,10.8589 5.987185,10.8129 6.066035,10.7299 L7.022685,9.7159 C7.100585,9.6339 7.143335,9.5239 7.143335,9.4059 C7.143335,9.2889 7.101535,9.1789 7.022685,9.0969 C6.945735,9.0159 6.842185,8.9709 6.731985,8.9709 C6.619885,8.9709 6.515385,9.0169 6.436535,9.0999 L5.478935,10.1129 C5.317435,10.2849 5.317435,10.5629 5.478935,10.7329 C5.556835,10.8139 5.659435,10.8589 5.770585,10.8589 L5.770585,10.8589 Z M3.967485,10.1109 C4.141335,10.1109 4.337985,10.0129 4.491885,9.8499 L5.815235,8.4509 C6.058435,8.1939 6.135385,7.8239 5.979585,7.6599 C5.912135,7.5889 5.819035,7.5739 5.753485,7.5739 C5.579635,7.5739 5.382985,7.6719 5.229085,7.8349 L3.905735,9.2339 C3.661585,9.4909 3.585585,9.8609 3.741385,10.0249 C3.808835,10.0959 3.901935,10.1109 3.967485,10.1109 L3.967485,10.1109 Z M2.950985,9.0079 C3.063085,9.0079 3.167585,8.9619 3.245485,8.8789 L4.203085,7.8649 C4.365535,7.6939 4.365535,7.4159 4.204035,7.2459 C4.126135,7.1649 4.022585,7.1199 3.912385,7.1199 C3.800285,7.1199 3.695785,7.1659 3.616935,7.2489 L2.660285,8.2619 C2.497835,8.4329 2.497835,8.7119 2.659335,8.8819 C2.737235,8.9629 2.840785,9.0079 2.950985,9.0079 L2.950985,9.0079 Z M10.381885,11.3919 C10.410385,11.3419 10.414185,11.2619 10.391385,11.1659 C10.342935,10.9559 10.199485,10.7689 10.156735,10.7399 L8.830535,10.0689 C8.722235,9.9739 8.618685,9.7419 8.780185,9.4929 C8.847635,9.3879 8.953085,9.3309 9.078485,9.3309 C9.163035,9.3309 9.230485,9.3579 9.258985,9.3709 L10.230835,9.8799 L11.140935,10.4579 C11.205535,10.4999 11.279635,10.5219 11.356585,10.5219 C11.501935,10.5219 11.638735,10.4409 11.712835,10.3119 C11.769835,10.2129 11.785985,10.0959 11.759385,9.9829 C11.732785,9.8689 11.666285,9.7729 11.571285,9.7129 L10.435085,8.9879 C10.360985,8.9569 9.982885,8.7819 9.890735,8.4939 C9.852735,8.3769 9.865085,8.2579 9.925885,8.1489 C9.980985,8.0519 10.078835,7.9959 10.196635,7.9959 C10.295435,7.9959 10.383785,8.0349 10.428435,8.0579 L11.219785,8.6039 L12.382585,9.3419 C12.447185,9.3839 12.521285,9.4059 12.597285,9.4059 C12.742635,9.4059 12.880385,9.3249 12.954485,9.1959 C13.010535,9.0979 13.027635,8.9809 13.001035,8.8679 C12.974435,8.7539 12.906985,8.6569 12.811985,8.5969 L11.659635,7.8639 L10.997485,7.4949 C10.939535,7.4689 10.643135,7.3249 10.566185,7.0679 C10.530085,6.9479 10.546235,6.8249 10.613685,6.7119 C10.704885,6.5599 10.854035,6.4759 11.034535,6.4759 C11.240685,6.4759 11.430685,6.5849 11.461085,6.6039 L12.602035,7.3779 L13.763885,8.1169 C13.828485,8.1579 13.902585,8.1789 13.978585,8.1789 C14.124885,8.1789 14.261685,8.0989 14.335785,7.9699 C14.392785,7.8709 14.408935,7.7549 14.382335,7.6409 C14.355735,7.5269 14.288285,7.4309 14.194235,7.3709 L13.022885,6.6269 C13.022885,6.6269 10.031335,4.4849 9.340685,3.9939 C9.196285,3.8919 9.052835,3.8409 8.914135,3.8409 C8.611085,3.8409 8.403985,4.0889 8.382135,4.1119 L6.906785,5.4619 C6.890635,5.4729 6.516335,5.7179 6.018535,5.7179 C5.768685,5.7179 5.531185,5.6569 5.310785,5.5359 C4.640085,5.1689 4.602085,4.4299 4.711335,4.0109 L5.766785,2.6139 L4.366485,2.0649 L2.359135,5.6969 L3.019385,6.4949 C3.249285,6.3949 3.481085,6.3439 3.710985,6.3439 C4.285735,6.3439 4.702785,6.6569 4.891835,6.8329 C5.074235,6.7349 5.420035,6.5789 5.785785,6.5789 C6.066985,6.5789 6.308285,6.6689 6.503985,6.8469 C6.891585,7.1979 6.912485,7.6999 6.831735,8.0839 C6.867835,8.0799 6.905835,8.0779 6.944785,8.0779 C7.244985,8.0779 7.510035,8.2149 7.711435,8.4739 C7.942285,8.7739 7.958435,9.0799 7.905235,9.3079 C8.080985,9.3459 8.306135,9.4319 8.487585,9.6279 C8.702285,9.8589 8.806785,10.1809 8.799185,10.5879 C8.798235,10.6279 8.861885,10.7429 8.924585,10.8159 L9.258035,11.1899 L9.685535,11.4609 C9.725435,11.4859 9.850835,11.5219 10.004735,11.5219 C10.189035,11.5219 10.336285,11.4709 10.381885,11.3919 L10.381885,11.3919 Z M0.950285,6.1799 L3.922835,0.6239 L2.979485,-0.0001 L0.000285,5.5659 L0.950285,6.1799 Z M14.133435,0.6049 L15.079635,0.0009 L18.068335,5.5709 L17.120235,6.1819 L14.133435,0.6049 Z" id="Fill-1" fill="#FFFFFF" mask="url(#mask-2)"></path>
                    </g>
                </g>
            </g>
        </g>
    </g>
</svg>