<?xml version="1.0" encoding="UTF-8"?>
<svg width="9px" height="8px" viewBox="0 0 9 8" version="1.1" xmlns="http://www.w3.org/2000/svg" xmlns:xlink="http://www.w3.org/1999/xlink">
    <!-- Generator: Sketch 47.1 (45422) - http://www.bohemiancoding.com/sketch -->
    <title>entity_icon</title>
    <desc>Created with Sketch.</desc>
    <defs>
        <polygon id="path-1" points="9 4 9 8 0 8 0 4 0 0 9 0 9 4"></polygon>
    </defs>
    <g id="Page-1" stroke="none" stroke-width="1" fill="none" fill-rule="evenodd">
        <g id="Graphic_Assets" transform="translate(-224.000000, -714.000000)">
            <g id="headings" transform="translate(127.000000, 671.000000)">
                <g id="entity_icon" transform="translate(97.000000, 43.000000)">
                    <g id="Page-1">
                        <mask id="mask-2" fill="white">
                            <use xlink:href="#path-1"></use>
                        </mask>
                        <g id="Clip-2"></g>
                        <path d="M1.53188507,5 L3.46706377,5 C3.76033637,5 4,5.22507404 4,5.50049358 C4,5.77492596 3.76033637,6 3.46706377,6 L1.53188507,6 C1.23966363,6 1,5.77492596 1,5.50049358 C1,5.22507404 1.23966363,5 1.53188507,5 L1.53188507,5 Z M1.53188507,3 L3.46706377,3 C3.76033637,3 4,3.2260612 4,3.50049358 C4,3.77492596 3.76033637,4 3.46706377,4 L1.53188507,4 C1.23966363,4 1,3.77492596 1,3.50049358 C1,3.2260612 1.23966363,3 1.53188507,3 L1.53188507,3 Z M1.53188507,1 L3.46706377,1 C3.76033637,1 4,1.22507404 4,1.49950642 C4,1.77492596 3.76033637,2 3.46706377,2 L1.53188507,2 C1.23966363,2 1,1.77492596 1,1.49950642 C1,1.22507404 1.23966363,1 1.53188507,1 L1.53188507,1 Z M5.46561482,5.00018956 C5.72903083,4.99198881 5.94901625,5.25089807 5.95562526,5.57775637 L6,7 L5.0435827,7 L5.0001521,5.60821628 C4.9935431,5.28135799 5.20314294,5.00721877 5.46561482,5.00018956 L5.46561482,5.00018956 Z M7.46655896,5.00018956 C7.72903083,4.99198881 7.9499604,5.25089807 7.9565694,5.57775637 L8,7 L7.0435827,7 L7.0001521,5.60821628 C6.9935431,5.28135799 7.20314294,5.00721877 7.46655896,5.00018956 L7.46655896,5.00018956 Z M9,8 L9,3.74513104 C9,3.43928829 8.74801545,3.18826641 8.44003433,3.18826641 L4.82535936,3.18826641 C4.79349925,3.18826641 4.76453551,3.20076942 4.73267539,3.20654003 L4.73267539,0.556864631 C4.73267539,0.25102188 4.4816563,0 4.17367518,0 L0.559000215,0 C0.251984553,0 0,0.25102188 0,0.556864631 L0,8 L9,8 Z" id="Fill-1" fill-opacity="0.4" fill="#231F20" mask="url(#mask-2)"></path>
                    </g>
                </g>
            </g>
        </g>
    </g>
</svg>