<?xml version="1.0" encoding="UTF-8"?>
<svg width="7px" height="9px" viewBox="0 0 7 9" version="1.1" xmlns="http://www.w3.org/2000/svg" xmlns:xlink="http://www.w3.org/1999/xlink">
    <!-- Generator: Sketch 47.1 (45422) - http://www.bohemiancoding.com/sketch -->
    <title>region_icon</title>
    <desc>Created with Sketch.</desc>
    <defs></defs>
    <g id="Page-1" stroke="none" stroke-width="1" fill="none" fill-rule="evenodd" fill-opacity="0.4">
        <g id="Graphic_Assets" transform="translate(-177.000000, -715.000000)" fill="#231F20">
            <g id="headings" transform="translate(127.000000, 671.000000)">
                <g id="region_icon" transform="translate(50.000000, 44.000000)">
                    <path d="M3.3456,5.53545 C2.1956,5.53545 1.2626,4.60145 1.2626,3.45145 C1.2626,2.30145 2.1956,1.36845 3.3456,1.36845 C4.4966,1.36845 5.4286,2.30145 5.4286,3.45145 C5.4286,4.60145 4.4966,5.53545 3.3456,5.53545 M3.3456,0.00045 C1.4976,0.00045 -0.0004,1.49845 -0.0004,3.34645 C-0.0004,6.99945 3.3456,8.85845 3.3456,8.85845 C3.3456,8.85845 6.6916,6.99945 6.6916,3.34645 C6.6916,1.49845 5.1936,0.00045 3.3456,0.00045" id="Fill-1"></path>
                </g>
            </g>
        </g>
    </g>
</svg>